<svg width="18" height="18" viewBox="0 0 18 18" fill="none" xmlns="http://www.w3.org/2000/svg">
<path d="M7.34118 6.5C6.53284 5.96254 6.00008 5.04349 6.00008 4C6.00008 2.34315 7.34323 1 9.00008 1C10.5954 1 11.8999 2.24523 11.9946 3.81674M6.00558 9.18672C5.13595 9.61804 4.07365 9.61989 3.16996 9.09814C1.73509 8.26972 1.24346 6.43495 2.07189 5.00007C2.86955 3.61848 4.60018 3.11139 6.0085 3.81513M7.66445 11.6867C7.60317 12.6555 7.07362 13.5764 6.16993 14.0981C4.73506 14.9266 2.90029 14.4349 2.07186 13.0001C1.2742 11.6185 1.70036 9.86616 3.01398 8.99839M10.3357 6.31328C10.397 5.3445 10.9265 4.4236 11.8302 3.90186C13.2651 3.07343 15.0998 3.56505 15.9283 4.99993C16.7259 6.38152 16.2998 8.13384 14.9862 9.00161M11.9946 8.81328C12.8642 8.38197 13.9265 8.38011 14.8302 8.90186C16.2651 9.73028 16.7567 11.5651 15.9283 12.9999C15.1306 14.3815 13.4 14.8886 11.9917 14.1849M10.659 11.5C11.4674 12.0375 12.0001 12.9565 12.0001 14C12.0001 15.6569 10.657 17 9.00011 17C7.4048 17 6.10032 15.7548 6.00562 14.1833M12.0001 9C12.0001 10.6569 10.6569 12 9.00008 12C7.34323 12 6.00008 10.6569 6.00008 9C6.00008 7.34315 7.34323 6 9.00008 6C10.6569 6 12.0001 7.34315 12.0001 9Z" stroke="black" stroke-width="2" stroke-linecap="round" stroke-linejoin="round"/>
</svg>
