<svg width="55" height="34" viewBox="0 0 55 34" fill="none" xmlns="http://www.w3.org/2000/svg">
<path d="M9.97626 13.3249C10.3597 12.449 10.4915 11.3755 10.1231 10.4134C9.29011 10.6816 8.39785 11.4727 7.99483 12.3544C7.62492 13.1162 7.4213 14.2523 7.79897 15.1675C8.76871 14.9957 9.5666 14.1861 9.97626 13.3249Z" fill="black"/>
<path d="M11.1947 14.4554C9.79643 14.7422 8.8575 15.9189 8.20024 16.095C7.54261 16.2712 6.3379 15.8011 5.25465 16.1127C3.84335 16.5132 2.74332 17.6666 2.36572 19.1334C1.56984 22.0785 3.67152 25.5678 5.66589 27.2584C6.63946 28.0983 7.78414 29.0036 8.88229 28.6658C9.91912 28.3439 10.159 27.5965 11.4327 27.2552C12.7055 26.9142 13.2573 27.4935 14.361 27.1758C15.5057 26.847 15.9551 25.6473 16.378 24.4321C16.8654 23.0467 16.8905 21.8284 16.8945 21.7608C16.8684 21.7457 14.4451 21.4915 13.7474 18.9693C13.1595 16.8583 14.6357 15.3838 14.7012 15.2993C13.3245 14.1053 11.7399 14.3536 11.1947 14.4554Z" fill="black"/>
<path d="M22.4115 8.38031C25.4029 7.57877 28.0384 9.08262 28.8428 12.0847C29.6501 15.0976 28.0796 17.7399 25.0561 18.5501L21.744 19.4375L23.1553 24.7046L20.7624 25.3458L16.6315 9.92906L22.4115 8.38031ZM21.2058 17.4289L23.9516 16.6932C26.035 16.1349 26.9202 14.6955 26.3992 12.751C25.8782 10.8067 24.3947 10.0132 22.322 10.5686L19.5655 11.3072L21.2058 17.4289Z" fill="black"/>
<path d="M31.3858 19.076C30.859 17.11 32.042 15.4992 34.6731 14.6338L37.7011 13.6279L37.4693 12.7626C37.1343 11.5125 36.0899 10.9908 34.6799 11.3686C33.3441 11.7265 32.6824 12.5907 32.7488 13.6495L30.5693 14.2335C30.1536 12.1691 31.4834 10.2097 34.2613 9.46532C36.9857 8.73534 39.1135 9.71107 39.7175 11.9653L41.793 19.7111L39.5814 20.3037L39.0861 18.4554L39.0329 18.4697C38.7163 19.8943 37.507 21.0656 36.0327 21.4606C33.8318 22.0504 31.9268 21.0951 31.3858 19.076ZM38.3682 16.1173L38.1306 15.2305L35.4092 16.1428C34.0567 16.6084 33.4401 17.4263 33.6977 18.3878C33.9611 19.3706 34.9448 19.7941 36.1841 19.4621C37.7973 19.0298 38.7603 17.5808 38.3682 16.1173Z" fill="black"/>
<path d="M44.9888 23.2862L44.4878 21.4165C44.6699 21.4134 45.0544 21.3104 45.2469 21.2588C46.3152 20.9725 46.772 20.3693 46.8152 19.1211C46.8095 19.0996 46.8352 18.3828 46.8323 18.3721L39.7582 8.20982L42.2579 7.54003L47.5506 15.9239L47.593 15.9125L47.9847 6.00552L50.4206 5.35284L49.3798 18.3077C49.1487 21.2898 48.2723 22.4636 45.9432 23.0877C45.7508 23.1392 45.168 23.2724 44.9888 23.2862Z" fill="black"/>
</svg>
