<svg width="473" height="364" viewBox="0 0 473 364" fill="none" xmlns="http://www.w3.org/2000/svg">
<path opacity="0.1" d="M866.004 100.005L865.636 104.176L864.535 108.356L862.701 112.554L860.14 116.777L856.857 121.034L852.859 125.333L848.153 129.683L842.752 134.09L836.665 138.561L829.907 143.104L822.492 147.726L814.434 152.43L805.753 157.224L796.466 162.112L786.592 167.098L776.154 172.186L765.172 177.377L753.671 182.676L741.673 188.082L729.206 193.596L716.293 199.219L702.963 204.949L689.244 210.785L675.162 216.723L660.748 222.761L646.031 228.894L364.25 345.697L349.562 351.748L335.161 357.649L321.071 363.38L307.315 368.924L293.914 374.263L280.891 379.378L268.264 384.251L256.053 388.862L244.275 393.195L232.945 397.23L222.079 400.95L211.692 404.337L201.794 407.373L192.398 410.042L183.513 412.327L175.147 414.212L167.309 415.682L160.003 416.722L153.234 417.318L147.006 417.456L141.32 417.125L136.178 416.312L131.577 415.006L127.517 413.199L123.995 410.881L121.006 408.045L118.544 404.684L116.602 400.792L115.175 396.366L114.251 391.402L113.822 385.899L113.877 379.856L114.404 373.273L115.391 366.153L116.824 358.499L118.689 350.316L120.971 341.609L123.656 332.386L126.726 322.656L130.165 312.429L133.956 301.715L138.081 290.529L142.523 278.883L147.264 266.792L152.285 254.274L157.567 241.346L163.093 228.027L168.842 214.337L174.797 200.297L180.94 185.93L187.25 171.258L193.711 156.307L310.775 -113.469L317.324 -128.523L323.774 -143.288L330.118 -157.734L336.352 -171.832L342.472 -185.552L348.475 -198.865L354.357 -211.743L360.118 -224.159L365.757 -236.086L371.274 -247.5L376.669 -258.375L381.944 -268.688L387.102 -278.417L392.144 -287.541L397.076 -296.039L401.901 -303.894L406.623 -311.088L411.249 -317.604L415.784 -323.429L420.234 -328.549L424.606 -332.953L428.908 -336.63L433.147 -339.573L437.33 -341.773L441.466 -343.227L445.562 -343.93L449.628 -343.879L453.671 -343.075L457.7 -341.519L461.724 -339.213L465.75 -336.162L469.787 -332.371L473.843 -327.849L477.927 -322.604L482.045 -316.646L486.204 -309.99L490.413 -302.647L494.677 -294.633L499.002 -285.964L503.394 -276.66L507.859 -266.738L512.4 -256.22L517.022 -245.127L521.727 -233.482L526.519 -221.309L531.4 -208.634L536.37 -195.482L541.43 -181.882L546.579 -167.859L551.818 -153.444L557.143 -138.666L562.552 -123.555L568.042 -108.141L666.488 169.368L671.947 184.814L677.28 199.977L682.469 214.831L687.498 229.351L692.35 243.513L697.008 257.295L701.455 270.675L705.673 283.631L709.645 296.146L713.354 308.201L716.783 319.779L719.914 330.864L722.731 341.443L725.218 351.502L727.358 361.03L729.137 370.017L730.539 378.454L731.549 386.334L732.154 393.65L732.34 400.399L732.095 406.576L731.407 412.18L730.264 417.211L728.658 421.668L726.578 425.555L724.016 428.875L720.966 431.631L717.42 433.831L713.374 435.481L708.824 436.589L703.767 437.165L698.202 437.219L692.127 436.763L685.543 435.808L678.453 434.368L670.86 432.457L662.769 430.091L654.184 427.284L645.114 424.053L635.566 420.416L625.55 416.389L615.077 411.992L604.16 407.242L592.811 402.158L581.046 396.76L568.88 391.067L556.331 385.099L543.415 378.875L530.154 372.416L516.567 365.742L502.675 358.871L488.502 351.825L474.07 344.622L215.373 215.163L201.039 207.963L186.993 200.879L173.265 193.915L159.883 187.079L146.876 180.375L134.271 173.807L122.096 167.378L110.377 161.09L99.1378 154.945L88.4045 148.944L78.2 143.086L68.5469 137.37L59.4666 131.794L50.9793 126.356L43.1041 121.053L35.8589 115.88L29.2602 110.833L23.3232 105.907L18.0617 101.096L13.4882 96.3939L9.61355 91.7942L6.44737 87.2896L3.99761 82.8726L2.2707 78.5353L1.27154 74.2697L1.00354 70.0673L1.46842 65.9198L2.66642 61.8183L4.5961 57.7543L7.25455 53.7189L10.6372 49.7034L14.7379 45.6993L19.5491 41.6979L25.0616 37.691L31.2645 33.6706L38.1459 29.6287L45.692 25.558L53.8878 21.4514L62.7168 17.3021L72.1613 13.104L82.2021 8.85153L92.8189 4.53936L103.99 0.163062L115.693 -4.28137L127.904 -8.79713L140.599 -13.3869L153.75 -18.0525L167.333 -22.795L181.319 -27.6149L195.679 -32.5118L210.386 -37.4845L225.409 -42.531L240.718 -47.6484L514.437 -138.89L529.572 -143.906L544.416 -148.796L558.945 -153.543L573.135 -158.132L586.96 -162.546L600.401 -166.767L613.434 -170.78L626.04 -174.566L638.2 -178.11L649.896 -181.392L661.112 -184.398L671.832 -187.11L682.043 -189.512L691.732 -191.587L700.887 -193.32L709.499 -194.694L717.559 -195.696L725.06 -196.311L731.996 -196.524L738.363 -196.323L744.157 -195.695L749.377 -194.628L754.023 -193.112L758.094 -191.137L761.595 -188.692L764.527 -185.77L766.896 -182.365L768.707 -178.468L769.969 -174.077L770.688 -169.186L770.874 -163.792L770.539 -157.895L769.693 -151.494L768.348 -144.588L766.519 -137.182L764.218 -129.277L761.462 -120.879L758.266 -111.993L754.646 -102.626L750.62 -92.7878L746.206 -82.487L741.42 -71.7348L736.283 -60.5438L730.813 -48.9274L725.029 -36.9004L718.952 -24.4789L712.6 -11.6802L705.995 1.47747L699.156 14.9744L692.103 28.79L684.856 42.9025L677.435 57.2894L534.756 332.604L527.287 346.945L519.943 360.983L512.732 374.689L505.658 388.033L498.728 400.987L491.946 413.523L485.316 425.613L478.841 437.231L472.522 448.352L466.361 458.95L460.357 469.002L454.511 478.486L448.821 487.379L443.285 495.661L437.901 503.313L432.664 510.318L427.571 516.658L422.617 522.318L417.796 527.284L413.104 531.545L408.533 535.088L404.076 537.905L399.728 539.987L395.479 541.329L391.323 541.926L387.251 541.774L383.254 540.872L379.325 539.221L375.455 536.821L371.635 533.677L367.856 529.792L364.11 525.174L360.388 519.832L356.683 513.773L352.985 507.011L349.287 499.557L345.582 491.426L341.861 482.634L338.119 473.197L334.348 463.135L330.542 452.467L326.697 441.215L322.807 429.4L318.867 417.046L314.874 404.179L310.825 390.823L306.717 377.005L302.549 362.754L298.319 348.097L294.027 333.064L289.674 317.684L285.26 301.99L205.923 18.135L201.503 2.26621L197.186 -13.3179L192.987 -28.59L188.921 -43.5242L185.003 -58.0949L181.25 -72.2781L177.676 -86.0506L174.297 -99.3904L171.13 -112.277L168.189 -124.69L165.493 -136.612L163.055 -148.025L160.892 -158.915L159.019 -169.266L157.452 -179.065L156.205 -188.301L155.293 -196.964L154.731 -205.046L154.531 -212.537L154.708 -219.434L155.272 -225.731L156.237 -231.424L157.613 -236.514L159.41 -240.998L161.639 -244.879L164.308 -248.158L167.424 -250.84L170.995 -252.93L175.026 -254.433L179.522 -255.358L184.487 -255.713L189.923 -255.508L195.833 -254.755L202.216 -253.464L209.071 -251.651L216.397 -249.328L224.191 -246.51L232.448 -243.214L241.162 -239.456L250.327 -235.254L259.934 -230.625L269.974 -225.589L280.437 -220.164L291.31 -214.37L302.582 -208.228L314.236 -201.758L326.259 -194.98L338.634 -187.917L351.342 -180.588L364.366 -173.015L377.685 -165.22L391.279 -157.224L405.126 -149.048L654.396 -1.39202L668.273 6.84869L681.876 14.9566L695.178 22.9227L708.15 30.7391L720.765 38.3985L732.993 45.8948L744.81 53.2227L756.189 60.3779L767.103 67.357L777.53 74.1574L787.444 80.7773L796.823 87.2161L805.647 93.4738L813.892 99.5513L821.542 105.45L828.576 111.173L834.977 116.723L840.731 122.104L845.822 127.321L850.238 132.378L853.966 137.281L856.996 142.038L859.319 146.654L860.928 151.136L861.817 155.494L861.983 159.733L861.421 163.864L860.131 167.894L858.113 171.831L855.37 175.686L851.904 179.467L847.721 183.183L842.828 186.843L837.233 190.456L830.945 194.031L823.975 197.577L816.338 201.101L808.045 204.613L799.115 208.121L789.562 211.631L779.406 215.151L768.666 218.687L757.363 222.247L745.52 225.835L733.158 229.456L720.304 233.116L706.981 236.818L693.216 240.565L679.037 244.36L664.472 248.204L649.549 252.099L634.297 256.045L618.748 260.042L339.465 331.484L323.955 335.428L308.736 339.271L293.835 342.999L279.278 346.596L265.089 350.049L251.292 353.341L237.909 356.458L224.963 359.384L212.473 362.103L200.459 364.599L188.939 366.858L177.929 368.862L167.445 370.598L157.5 372.049L148.108 373.2L139.279 374.037L131.024 374.545L123.352 374.709L116.268 374.518L109.78 373.957L103.89 373.015L98.6029 371.678L93.9192 369.937L89.8393 367.781L86.3619 365.201L83.4844 362.187L81.203 358.733L79.5125 354.83L78.4064 350.475L77.877 345.66L77.9155 340.384L78.5119 334.643L79.6551 328.435L81.3328 321.761L83.5319 314.621L86.2383 307.017L89.4367 298.952L93.1115 290.431L97.2457 281.459L101.822 272.044L106.822 262.193L112.228 251.915L118.019 241.222L124.176 230.126L130.679 218.638L137.507 206.775L144.64 194.55L152.056 181.982L159.733 169.087L167.651 155.884L175.788 142.394L184.123 128.637L192.633 114.636L345.156 -135.788L353.616 -149.629L361.934 -163.184L370.1 -176.425L378.106 -189.322L385.943 -201.846L393.606 -213.971L401.088 -225.67L408.385 -236.915L415.493 -247.681L422.409 -257.943L429.13 -267.679L435.656 -276.863L441.986 -285.475L448.121 -293.494L454.062 -300.9L459.81 -307.675L465.369 -313.802L470.742 -319.263L475.934 -324.046L480.949 -328.137L485.792 -331.524L490.469 -334.197L494.988 -336.147L499.355 -337.368L503.577 -337.852L507.662 -337.596L511.619 -336.599L515.455 -334.858L519.18 -332.374L522.801 -329.15L526.329 -325.19L529.772 -320.499L533.139 -315.085L536.439 -308.955L539.681 -302.121L542.875 -294.593L546.027 -286.387L549.148 -277.515L552.244 -267.995L555.325 -257.844L558.397 -247.081L561.467 -235.726L564.542 -223.802L567.628 -211.331L570.732 -198.337L573.856 -184.846L577.008 -170.883L580.189 -156.475L583.403 -141.652L586.653 -126.441L589.94 -110.874L593.266 -94.979L656.455 210.02L659.724 225.951L662.9 241.57L665.969 256.849L668.919 271.761L671.735 286.281L674.404 300.385L676.911 314.049L679.241 327.251L681.381 339.97L683.315 352.185L685.029 363.88L686.508 375.036L687.737 385.638L688.703 395.672L689.391 405.124L689.788 413.982L689.879 422.238L689.651 429.882L689.092 436.906L688.189 443.306L686.932 449.076L685.307 454.215L683.306 458.72L680.918 462.591L678.134 465.831L674.946 468.442L671.347 470.427L667.33 471.794L662.89 472.548L658.022 472.698L652.722 472.254L646.988 471.225L640.819 469.624L634.213 467.463L627.173 464.757L619.699 461.52L611.794 457.768L603.464 453.519L594.712 448.789L585.547 443.598L575.975 437.964L566.005 431.907L555.648 425.448L544.915 418.607L533.818 411.406L522.372 403.866L510.59 396.011L498.488 387.861L486.085 379.44L473.397 370.77L460.444 361.874L447.246 352.775L208.644 187.66L195.3 178.409L182.212 169.308L169.407 160.367L156.915 151.597L144.762 143.006L132.976 134.604L121.583 126.398L110.609 118.394L100.079 110.597L90.018 103.013L80.4498 95.6449L71.3971 88.4949L62.8818 81.5652L54.925 74.8565L47.5464 68.3687L40.7649 62.101L34.598 56.0516L29.0622 50.2179L24.1726 44.5967L19.943 39.1839L16.3859 33.9748L13.5123 28.9639L11.332 24.1453L9.85312 19.5125L9.08236 15.0583L9.025 10.7751L9.68468 6.65508L11.0635 2.68974L13.1623 -1.12964L15.9798 -4.81193L19.5136 -8.36639L23.7597 -11.8023L28.7124 -15.1292L34.3645 -18.3566L40.7073 -21.494L47.7305 -24.551L55.4223 -27.537L63.7696 -30.4611L72.7577 -33.3325L82.3706 -36.1601L92.5907 -38.9522L103.399 -41.7172L114.776 -44.4628L126.7 -47.1962L139.149 -49.9246L152.098 -52.6541L165.524 -55.3907L179.4 -58.1396L193.7 -60.9055L208.396 -63.6923L223.459 -66.5033L238.861 -69.3412L254.571 -72.2077L538.025 -123.491L553.836 -126.334L569.357 -129.1L584.559 -131.777L599.417 -134.352L613.904 -136.811L627.995 -139.143L641.667 -141.332L654.896 -143.366L667.661 -145.229L679.941 -146.909L691.717 -148.39L702.971 -149.658L713.686 -150.698L723.847 -151.497L733.44 -152.04L742.453 -152.314L750.873 -152.303L758.692 -151.996L765.901 -151.378L772.492 -150.438L778.461 -149.162L783.803 -147.54L788.517 -145.56L792.599 -143.212L796.052 -140.486L798.876 -137.373L801.074 -133.865L802.651 -129.954L803.613 -125.634L803.966 -120.899L803.719 -115.745L802.882 -110.168L801.464 -104.165L799.478 -97.7352L796.937 -90.8779L793.855 -83.5936L790.246 -75.8844L786.128 -67.7531L781.515 -59.2038L776.427 -50.2419L770.882 -40.8741L764.899 -31.1079L758.497 -20.9523L751.697 -10.4174L744.521 0.48536L736.989 11.7436L729.124 23.3437L720.947 35.2708L712.481 47.509L703.748 60.0412L694.772 72.8494L685.575 85.9144L676.179 99.2161L506.994 338.133L497.574 351.4L488.313 364.4L479.222 377.103L470.312 389.482L461.592 401.508L453.072 413.156L444.759 424.397L436.661 435.205L428.782 445.556L421.128 455.424L413.702 464.786L406.509 473.619L399.549 481.9L392.825 489.608L386.336 496.724L380.081 503.228L374.061 509.103L368.271 514.333L362.71 518.902L357.373 522.796L352.257 526.004L347.355 528.513L342.663 530.315L338.174 531.402L333.881 531.766L329.776 531.403L325.853 530.31L322.102 528.484L318.515 525.925L315.084 522.634L311.798 518.615L308.65 513.871L305.628 508.409L302.725 502.236L299.929 495.362L297.232 487.797L294.625 479.554L292.096 470.646L289.638 461.089L287.241 450.899L284.897 440.095L282.596 428.695L280.331 416.722L278.094 404.196L275.878 391.142L273.676 377.583L271.481 363.545L269.287 349.055L267.09 334.141L264.885 318.83L262.668 303.153L260.435 287.139L258.184 270.82L218.131 -21.6133L215.936 -37.8158L213.81 -53.7071L211.765 -69.2587L209.811 -84.4429L207.961 -99.2331L206.227 -113.603L204.621 -127.529L203.156 -140.988L201.845 -153.956L200.702 -166.413L199.739 -178.338L198.971 -189.715L198.411 -200.525L198.071 -210.753L197.966 -220.384L198.109 -229.405L198.511 -237.805L199.187 -245.575L200.148 -252.705L201.407 -259.189L202.974 -265.021L204.862 -270.197L207.079 -274.714L209.637 -278.572L212.545 -281.771L215.81 -284.312L219.442 -286.2L223.447 -287.439L227.831 -288.035L232.599 -287.996L237.757 -287.33L243.307 -286.047L249.253 -284.159L255.595 -281.678L262.334 -278.619L269.47 -274.995L277.001 -270.823L284.924 -266.119L293.235 -260.902L301.929 -255.189L311 -249.001L320.442 -242.357L330.245 -235.278L340.399 -227.787L350.895 -219.905L361.72 -211.654L372.861 -203.057L384.305 -194.139L396.036 -184.922L408.038 -175.431L420.293 -165.689L432.784 -155.721L445.491 -145.55L672.27 36.2453L684.772 46.3046L697.008 56.1869L708.952 65.8797L720.576 75.3715L731.854 84.6517L742.76 93.7106L753.268 102.54L763.352 111.132L772.99 119.48L782.157 127.579L790.829 135.425L798.986 143.012L806.607 150.34L813.67 157.406L820.157 164.21L826.051 170.753L831.333 177.034L835.989 183.056L840.005 188.823L843.366 194.337L846.062 199.603L848.082 204.626L849.416 209.413L850.058 213.968L850.002 218.3L849.242 222.417L847.775 226.325L845.601 230.034L842.719 233.552L839.13 236.889L834.838 240.055L829.847 243.058L824.163 245.91L817.794 248.62L810.749 251.199L803.039 253.656L794.676 256.002L785.674 258.247L776.047 260.401L765.813 262.474L754.989 264.475L743.594 266.414L731.649 268.3L719.175 270.14L706.196 271.945L692.734 273.72L678.816 275.473L664.468 277.212L649.716 278.941L634.589 280.668L619.114 282.395L603.323 284.128L317.113 315.001L301.078 316.718L285.33 318.382L269.898 319.982L254.81 321.507L240.093 322.947L225.773 324.291L211.876 325.526L198.424 326.64L185.442 327.621L172.95 328.457L160.97 329.133L149.52 329.638L138.619 329.958L128.283 330.08L118.527 329.991L109.366 329.677L100.812 329.126L92.8752 328.325L85.5662 327.261L78.8929 325.923L72.862 324.297L67.4787 322.374L62.7466 320.141L58.6682 317.589L55.2441 314.707L52.4738 311.487L50.3551 307.919L48.8846 303.995L48.0573 299.71L47.867 295.055L48.3061 290.027L49.3657 284.619L51.0356 278.83L53.3044 272.655L56.1594 266.094L59.5871 259.146L63.5725 251.811L68.0999 244.092L73.1523 235.989L78.7119 227.508L84.7602 218.654L91.2776 209.431L98.244 199.849L105.638 189.914L113.439 179.636L121.625 169.026L130.172 158.096L139.058 146.859L148.259 135.328L157.753 123.519L167.514 111.448L177.519 99.1323L187.744 86.5898L372.748 -139.629L383.09 -152.25L393.258 -164.622L403.24 -176.717L413.022 -188.509L422.593 -199.971L431.942 -211.074L441.059 -221.794L449.935 -232.104L458.562 -241.98L466.934 -251.396L475.045 -260.329L482.889 -268.757L490.464 -276.656L497.765 -284.006L504.792 -290.787L511.543 -296.98L518.018 -302.566L524.218 -307.528L530.145 -311.852L535.801 -315.522L541.19 -318.526L546.316 -320.852L551.184 -322.489L555.799 -323.429L560.167 -323.664L564.297 -323.189L568.194 -321.998L571.867 -320.09L575.324 -317.462L578.574 -314.115L581.627 -310.051L584.491 -305.273L587.177 -299.786L589.695 -293.597L592.054 -286.714L594.266 -279.146L596.34 -270.904L598.287 -262.002L600.118 -252.453L601.841 -242.273L603.468 -231.48L605.009 -220.091L606.472 -208.126L607.868 -195.608L609.204 -182.557L610.491 -168.998L611.735 -154.956L612.946 -140.455L614.129 -125.524L615.292 -110.191L616.441 -94.4827L617.581 -78.4304L618.717 -62.064L638.796 232.535L639.895 248.929L640.948 265.017L641.946 280.767L642.88 296.151L643.741 311.141L644.517 325.711L645.198 339.834L645.773 353.487L646.23 366.646L646.558 379.288L646.745 391.393L646.779 402.94L646.647 413.912L646.337 424.292L645.837 434.063L645.134 443.211L644.218 451.725L643.074 459.592L641.693 466.803L640.061 473.35L638.169 479.226L636.005 484.425L633.558 488.945L630.82 492.783L627.779 495.939L624.429 498.412L620.759 500.207L616.763 501.326L612.435 501.775L607.767 501.561L602.755 500.691L597.394 499.176L591.681 497.026L585.613 494.253L579.188 490.87L572.407 486.892L565.268 482.335L557.774 477.215L549.926 471.55L541.729 465.359L533.187 458.661L524.305 451.478L515.09 443.829L505.55 435.737L495.695 427.225L485.533 418.316L475.075 409.034L464.335 399.403L453.326 389.447L442.061 379.192L430.556 368.662L418.827 357.883L406.891 346.88L192.994 149.275L181.147 138.298L169.546 127.513L158.217 116.935L147.187 106.577L136.481 96.4514L126.126 86.5704L116.145 76.9445L106.564 67.5833L97.4069 58.4954L88.6967 49.688L80.4562 41.1679L72.7073 32.9401L65.471 25.0092L58.7677 17.3784L52.6164 10.05L47.0353 3.0252L42.0417 -3.69558L37.6515 -10.113L33.8796 -16.2288L30.7396 -22.0451L28.2438 -27.5655L26.4034 -32.7942L25.228 -37.736L24.7259 -42.3966L24.9041 -46.7824L25.7681 -50.9006L27.3218 -54.7588L29.5678 -58.3652L32.5071 -61.7286L36.1393 -64.8584L40.4622 -67.764L45.4725 -70.4556L51.165 -72.9434L57.5332 -75.2381L64.5689 -77.3505L72.2625 -79.2915L80.6031 -81.0721L89.5779 -82.7034L99.173 -84.1965L109.373 -85.5623L120.161 -86.8117L131.519 -87.9554L143.428 -89.0039L155.866 -89.9673L168.812 -90.8555L182.242 -91.6781L196.133 -92.4442L210.459 -93.1623L225.193 -93.8407L240.31 -94.4869L255.779 -95.1081L271.572 -95.7106L287.66 -96.3004L575.29 -106.599L591.189 -107.141L606.776 -107.644L622.021 -108.099L636.898 -108.498L651.378 -108.831L665.436 -109.089L679.048 -109.262L692.188 -109.337L704.834 -109.305L716.965 -109.155L728.56 -108.874L739.599 -108.451L750.066 -107.873L759.943 -107.13L769.216 -106.208L777.87 -105.096L785.894 -103.782L793.276 -102.254L800.008 -100.5L806.081 -98.5087L811.489 -96.2692L816.228 -93.7705L820.293 -91.0023L823.684 -87.9546L826.399 -84.618L828.44 -80.9836L829.809 -77.0431L830.511 -72.7889L830.551 -68.2142L829.935 -63.3127L828.672 -58.0791L826.772 -52.5088L824.246 -46.5982L821.105 -40.3446L817.363 -33.746L813.034 -26.8017L808.135 -19.5119L802.681 -11.8777L796.691 -3.90136L790.183 4.41391L783.177 13.0636L775.693 22.0424L767.753 31.3437L759.379 40.9599L750.593 50.882L741.418 61.1005L731.878 71.6043L721.997 82.3813L711.8 93.4185L701.311 104.702L690.556 116.216L679.56 127.944L468.445 352.243L457.411 363.92L446.578 375.34L435.961 386.479L425.574 397.309L415.43 407.805L405.54 417.941L395.916 427.692L386.567 437.034L377.502 445.941L368.729 454.392L360.255 462.362L352.084 469.83L344.222 476.775L336.672 483.177L329.437 489.016L322.518 494.275L315.915 498.935L309.629 502.982L303.658 506.399L297.999 509.174L292.65 511.295L287.606 512.749L282.864 513.529L278.416 513.625L274.257 513.03L270.381 511.74L266.778 509.751L263.442 507.059L260.364 503.666L257.534 499.57L254.942 494.775L252.58 489.284L250.435 483.103L248.499 476.239L246.759 468.7L245.205 460.496L243.826 451.639L242.61 442.142L241.546 432.02L240.623 421.287L239.829 409.963L239.155 398.064L238.588 385.613L238.119 372.629L237.737 359.136L237.432 345.158L237.195 330.718L237.016 315.845L236.887 300.564L236.8 284.903L236.746 268.892L236.72 252.56L236.714 -42.7334L236.728 -59.2406L236.765 -75.4452L236.831 -91.317L236.934 -106.826L237.082 -121.945L237.284 -136.645L237.547 -150.9L237.883 -164.683L238.299 -177.972L238.807 -190.741L239.416 -202.97L240.137 -214.637L240.982 -225.722L241.961 -236.208L243.086 -246.078L244.367 -255.316L245.816 -263.908L247.445 -271.843L249.263 -279.108L251.283 -285.695L253.515 -291.595L255.97 -296.803L258.657 -301.314L261.587 -305.124L264.77 -308.231L268.213 -310.636L271.926 -312.341L275.917 -313.347L280.192 -313.659L284.76 -313.284L289.624 -312.229L294.792 -310.501L300.267 -308.113L306.052 -305.075L312.152 -301.399L318.566 -297.101L325.298 -292.195L332.346 -286.698L339.71 -280.627L347.387 -274.001L355.375 -266.841L363.67 -259.165L372.267 -250.997L381.16 -242.357L390.341 -233.27L399.803 -223.759L409.537 -213.848L419.532 -203.562L429.776 -192.927L440.259 -181.968L450.965 -170.712L461.882 -159.184L472.994 -147.411L672.94 65.0196L684.067 76.8674L694.968 88.5106L705.617 99.9325L715.99 111.117L726.061 122.05L735.806 132.717L745.201 143.106L754.22 153.205L762.841 163.004L771.042 172.493L778.798 181.664L786.09 190.509L792.895 199.023L799.194 207.201L804.968 215.038L810.198 222.532L814.867 229.681L818.959 236.485L822.458 242.943L825.35 249.056L827.623 254.828L829.264 260.261L830.264 265.358L830.614 270.126L830.305 274.569L829.332 278.695L827.69 282.51L825.374 286.022L822.384 289.24L818.719 292.172L814.379 294.83L809.367 297.221L803.687 299.358L797.345 301.252L790.347 302.912L782.702 304.352L774.42 305.582L765.512 306.615L755.992 307.463L745.873 308.137L735.17 308.65L723.903 309.014L712.087 309.241L699.744 309.341L686.894 309.328L673.559 309.212L659.762 309.003L645.529 308.713L630.884 308.352L615.854 307.929L600.466 307.453L584.749 306.934L568.731 306.379L281.073 296.071L265.102 295.476L249.437 294.867L234.108 294.236L219.144 293.578L204.572 292.884L190.421 292.148L176.714 291.36L163.478 290.511L150.737 289.594L138.512 288.597L126.825 287.511L115.697 286.325L105.146 285.03L95.1906 283.614L85.8463 282.065L77.1283 280.375L69.0498 278.53L61.6229 276.521L54.8581 274.335L48.7642 271.963L43.3489 269.394L38.6181 266.616L34.5762 263.62L31.2261 260.397L28.5692 256.935L26.6054 253.227L25.3331 249.264L24.749 245.038L24.8487 240.541L25.6259 235.766L27.0733 230.708L29.1819 225.362L31.9415 219.721L35.3405 213.783L39.366 207.545L44.0039 201.004L49.2388 194.159L55.0543 187.011L61.4327 179.559L68.3555 171.805L75.8031 163.753L83.7548 155.406L92.1893 146.768L101.084 137.845L110.417 128.645L120.164 119.175L130.3 109.444L140.801 99.4621L151.642 89.2404L162.797 78.7909L174.24 68.1267L185.945 57.262L197.885 46.2117L411.777 -151.378L423.63 -162.293L435.27 -172.974L446.679 -183.395L457.842 -193.531L468.744 -203.358L479.37 -212.85L489.708 -221.983L499.747 -230.733L509.475 -239.076L518.884 -246.99L527.964 -254.452L536.708 -261.44L545.11 -267.934L553.165 -273.913L560.869 -279.358L568.219 -284.251L575.212 -288.574L581.849 -292.311L588.128 -295.447L594.051 -297.968L599.62 -299.861L604.838 -301.115L609.71 -301.718L614.239 -301.663L618.431 -300.942L622.293 -299.548L625.832 -297.478L629.055 -294.726L631.971 -291.293L634.59 -287.177L636.92 -282.38L638.972 -276.904L640.757 -270.755L642.285 -263.936L643.568 -256.457L644.618 -248.325L645.446 -239.551L646.064 -230.148L646.485 -220.127L646.721 -209.504L646.784 -198.296L646.687 -186.519L646.441 -174.193L646.059 -161.338L645.552 -147.975L644.933 -134.127L644.212 -119.819L643.4 -105.075L642.508 -89.9207L641.547 -74.3843L640.525 -58.4935L639.453 -42.2773L618.255 268.776L617.117 285.018L615.974 300.934L614.821 316.493L613.65 331.666L612.456 346.425L611.233 360.742L609.972 374.59L608.666 387.945L607.307 400.782L605.885 413.077L604.391 424.81L602.817 435.959L601.151 446.504L599.386 456.429L597.509 465.716L595.511 474.351L593.382 482.32L591.112 489.61L588.689 496.212L586.104 502.116L583.346 507.315L580.406 511.802L577.274 515.574L573.941 518.628L570.397 520.963L566.634 522.579L562.643 523.478L558.417 523.663L553.949 523.14L549.232 521.915L544.26 519.996L539.027 517.393L533.53 514.116L527.764 510.178L521.726 505.592L515.414 500.374L508.826 494.539L501.963 488.104L494.824 481.089L487.411 473.513L479.726 465.396L471.773 456.759L463.555 447.626L455.079 438.02L446.349 427.965L437.374 417.484L428.161 406.605L418.721 395.353L409.062 383.754L399.197 371.835L389.138 359.623L378.897 347.146L193.898 120.952L183.554 108.284L173.416 95.8317L163.507 83.6134L153.852 71.6471L144.475 59.9497L135.399 48.5368L126.648 37.4229L118.245 26.622L110.214 16.1461L102.576 6.00683L95.3534 -3.78589L88.5674 -13.2228L82.2387 -22.2962L76.3871 -30.9993L71.0319 -39.3264L66.1913 -47.2733L61.8828 -54.8365L58.1227 -62.0139L54.9265 -68.8043L52.3086 -75.2077L50.2824 -81.2251L48.8598 -86.8586L48.0518 -92.1112L47.8681 -96.9868L48.317 -101.49L49.4056 -105.628L51.1397 -109.405L53.5234 -112.831L56.5599 -115.912L60.2506 -118.659L64.5954 -121.08L69.5931 -123.185L75.2408 -124.986L81.5341 -126.493L88.4672 -127.718L96.0328 -128.673L104.222 -129.371L113.025 -129.823L122.43 -130.044L132.424 -130.046L142.992 -129.842L154.119 -129.445L165.787 -128.868L177.978 -128.126L190.672 -127.229L203.848 -126.192L217.484 -125.027L231.557 -123.747L246.042 -122.363L260.913 -120.886L276.144 -119.329L291.708 -117.702L307.577 -116.015L593.827 -85.1505L609.792 -83.4122L625.458 -81.6817L640.794 -79.9553L655.772 -78.2284L670.363 -76.4959L684.539 -74.752L698.274 -72.9906L711.542 -71.2045L724.319 -69.3864L736.58 -67.5284L748.303 -65.6222L759.468 -63.6589L770.054 -61.6297L780.043 -59.5249L789.417 -57.3349L798.161 -55.0498L806.259 -52.6598L813.7 -50.1544L820.47 -47.5235L826.561 -44.757L831.964 -41.8445L836.671 -38.7761L840.677 -35.5419L843.978 -32.132L846.572 -28.5372L848.458 -24.7482L849.636 -20.7563L850.109 -16.5531L849.881 -12.1308L848.956 -7.48203L847.341 -2.59987L845.045 2.52171L842.077 7.88827L838.447 13.5047L834.169 19.3751L829.256 25.5026L823.723 31.8899L817.585 38.5387L810.861 45.4496L803.569 52.6225L795.727 60.0565L787.358 67.7495L778.481 75.6985L769.12 83.8996L759.297 92.3481L749.037 101.038L738.364 109.961L727.304 119.112L715.882 128.479L704.124 138.054L692.058 147.826L679.71 157.782L667.107 167.909L440.29 349.725L427.669 359.816L415.271 369.696L403.117 379.338L391.224 388.721L379.608 397.819L368.286 406.609L357.272 415.067L346.579 423.171L336.221 430.896L326.208 438.222L316.552 445.126L307.26 451.587L298.341 457.584L289.803 463.097L281.649 468.108L273.886 472.597L266.515 476.548L259.541 479.943L252.964 482.769L246.783 485.01L240.999 486.652L235.609 487.685L230.61 488.097L225.999 487.879L221.77 487.022L217.918 485.519L214.436 483.365L211.318 480.556L208.554 477.089L206.135 472.963L204.054 468.177L202.298 462.733L200.858 456.635L199.722 449.888L198.878 442.496L198.315 434.468L198.02 425.814L197.98 416.543L198.182 406.667L198.613 396.2L199.26 385.158L200.109 373.555L201.146 361.41L202.359 348.743L203.735 335.573L205.259 321.921L206.918 307.811L208.701 293.267L210.595 278.313L212.588 262.976L214.667 247.282L216.822 231.261L219.042 214.94L259.103 -77.4929L261.346 -93.6915L263.573 -109.572L265.785 -125.103L267.986 -140.256L270.181 -155.001L272.374 -169.31L274.572 -183.156L276.779 -196.513L279.003 -209.355L281.25 -221.658L283.528 -233.4L285.846 -244.56L288.211 -255.116L290.631 -265.05L293.117 -274.345L295.677 -282.983L298.32 -290.952L301.056 -298.237L303.894 -304.826L306.844 -310.711L309.916 -315.881L313.12 -320.33L316.463 -324.053L319.957 -327.046L323.61 -329.307L327.43 -330.834L331.426 -331.63L335.606 -331.696L339.979 -331.037L344.55 -329.658L349.326 -327.567L354.315 -324.772L359.52 -321.283L364.948 -317.112L370.602 -312.272L376.485 -306.778L382.601 -300.644L388.95 -293.889L395.535 -286.529L402.356 -278.585L409.411 -270.077L416.699 -261.026L424.218 -251.455L431.964 -241.387L439.933 -230.847L448.12 -219.859L456.518 -208.449L465.121 -196.644L473.919 -184.471L482.904 -171.957L492.065 -159.13L501.393 -146.018L510.874 -132.65L680.029 106.239L689.346 119.447L698.456 132.409L707.336 145.107L715.963 157.522L724.314 169.635L732.367 181.431L740.099 192.894L747.489 204.009L754.514 214.763L761.154 225.145L767.387 235.143L773.195 244.748L778.556 253.951L783.452 262.746L787.866 271.125L791.779 279.085L795.175 286.622L798.038 293.732L800.355 300.415L802.111 306.671L803.294 312.5L803.892 317.904L803.895 322.887L803.295 327.453L802.084 331.605L800.254 335.351L797.801 338.698L794.721 341.652L791.012 344.223L786.673 346.42L781.703 348.253L776.105 349.732L769.882 350.87L763.038 351.677L755.58 352.167L747.515 352.352L738.852 352.245L729.602 351.86L719.776 351.211L709.387 350.312L698.45 349.177L686.982 347.821L674.998 346.257L662.518 344.501L649.562 342.566L636.15 340.468L622.305 338.219L608.049 335.833L593.408 333.325L578.407 330.708L563.071 327.993L547.429 325.194L248.136 271.046L232.548 268.191L217.281 265.364L202.364 262.564L187.826 259.786L173.695 257.027L159.999 254.284L146.765 251.551L134.016 248.823L121.778 246.093L110.075 243.355L98.9267 240.603L88.3554 237.828L78.3805 235.022L69.0201 232.178L60.2912 229.286L52.2092 226.338L44.7882 223.324L38.0408 220.235L31.9783 217.062L26.6101 213.796L21.9444 210.426L17.9879 206.942L14.7454 203.337L12.2205 199.6L10.415 195.722L9.32923 191.695L8.96197 187.51L9.31048 183.158L10.3704 178.631L12.1359 173.924L14.5997 169.028L17.753 163.937L21.5854 158.645L26.0854 153.148L31.24 147.441L37.0348 141.52L43.454 135.382L50.481 129.024L58.0975 122.447L66.2842 115.648L75.021 108.628L84.2864 101.389L94.0581 93.9324L104.313 86.2613L115.027 78.3796L126.175 70.2924L137.731 62.0055L149.67 53.5258L161.964 44.861L174.587 36.02L187.51 27.0125L200.706 17.8491L439.316 -147.286L452.65 -156.495L465.751 -165.514L478.598 -174.321L491.173 -182.892L503.455 -191.206L515.428 -199.238L527.076 -206.968L538.381 -214.372L549.332 -221.429L559.913 -228.117L570.114 -234.415L579.922 -240.302L589.33 -245.758L598.328 -250.764L606.908 -255.3L615.066 -259.348L622.795 -262.892L630.093 -265.915L636.957 -268.401L643.385 -270.335L649.376 -271.705L654.933 -272.497L660.057 -272.7L664.75 -272.305L669.017 -271.303L672.863 -269.684L676.294 -267.445L679.316 -264.578L681.938 -261.081L684.167 -256.952L686.014 -252.189L687.488 -246.793L688.599 -240.765L689.36 -234.111L689.783 -226.833L689.879 -218.939L689.662 -210.437L689.146 -201.335L688.343 -191.645L687.267 -181.378L685.934 -170.549L684.358 -159.171L682.553 -147.262L680.533 -134.839L678.314 -121.921L675.91 -108.528L673.336 -94.6827L670.605 -80.4064L667.733 -65.7234L664.733 -50.6586L661.618 -35.238L658.403 -19.4884L655.099 -3.43786L595.256 285.427L591.907 301.5L588.597 317.266L585.325 332.691L582.089 347.748L578.889 362.405L575.721 376.635L572.581 390.409L569.465 403.701L566.37 416.485L563.288 428.736L560.216 440.431L557.146 451.547L554.071 462.063L550.985 471.959L547.88 481.217L544.747 489.82L541.579 497.752L538.367 504.998L535.102 511.547L531.776 517.386L528.379 522.507L524.903 526.901L521.338 530.562L517.675 533.485L513.906 535.666L510.022 537.104L506.014 537.799L501.874 537.753L497.594 536.968L493.166 535.45L488.584 533.204L483.839 530.239L478.927 526.564L473.841 522.19L468.576 517.129L463.127 511.395L457.492 505.002L451.665 497.968L445.646 490.31L439.432 482.047L433.022 473.199L426.416 463.787L419.615 453.835L412.621 443.364L405.435 432.4L398.062 420.967L390.506 409.092L382.771 396.8L374.865 384.121L366.793 371.081L358.564 357.708L350.187 344.033L341.671 330.083L189.147 79.6419L180.705 65.7374L172.449 52.0867L164.398 38.7112L156.576 25.6316L149.002 12.8673L141.699 0.436859L134.688 -11.6425L127.99 -23.3546L121.625 -34.6844L115.615 -45.6181L109.978 -56.1432L104.735 -66.2482L99.9057 -75.9229L95.5073 -85.1587L91.5582 -93.9477L88.0755 -102.284L85.0756 -110.161L82.5741 -117.577L80.5857 -124.527L79.1242 -131.011L78.2023 -137.028L77.8319 -142.58L78.0236 -147.668L78.7869 -152.295L80.1302 -156.465L82.0607 -160.184L84.5843 -163.458L87.7058 -166.294L91.4284 -168.701L95.7542 -170.687L100.684 -172.262L106.217 -173.436L112.351 -174.222L119.082 -174.631L126.406 -174.675L134.317 -174.369L142.807 -173.726L151.866 -172.759L161.485 -171.484L171.651 -169.915L182.351 -168.068L193.571 -165.958L205.294 -163.601L217.504 -161.012L230.182 -158.207L243.309 -155.201L256.863 -152.011L270.823 -148.652L285.165 -145.138L299.865 -141.486L314.899 -137.71L330.239 -133.824L345.86 -129.842L625.116 -58.3986L640.547 -54.4223L655.669 -50.497L670.45 -46.6226L684.861 -42.7986L698.875 -39.0234L712.463 -35.2952L725.598 -31.611L738.255 -27.9672L750.408 -24.36L762.034 -20.7843L773.11 -17.2348L783.615 -13.7059L793.527 -10.1908L802.829 -6.68274L811.501 -3.17451L819.529 0.341708L826.896 3.87392L833.589 7.43044L839.596 11.0198L844.907 14.6509L849.511 18.3325L853.403 22.0738L856.575 25.8838L859.023 29.7713L860.744 33.7456L861.737 37.8153L862.003 41.9892L861.542 46.2758L860.359 50.6832L858.458 55.2193L855.846 59.8916L852.531 64.7072L848.521 69.6726L843.829 74.794L838.467 80.0769L832.447 85.5262L825.786 91.1462L818.499 96.9404L810.604 102.912L802.121 109.063L793.069 115.394L783.469 121.907L773.343 128.6L762.715 135.474L751.608 142.525L740.048 149.751L728.06 157.148L715.671 164.711L702.908 172.436L689.798 180.314L676.37 188.339L662.651 196.502L399.456 352.408L385.71 360.514L372.225 368.43L359.024 376.137L346.127 383.613L333.552 390.836L321.318 397.786L309.444 404.441L297.943 410.78L286.832 416.783L276.125 422.429L265.833 427.698L255.967 432.57L246.539 437.027L237.557 441.051L229.029 444.623L220.96 447.726L213.356 450.344L206.222 452.461L199.558 454.063L193.368 455.136L187.652 455.668L182.408 455.646L177.634 455.06L173.328 453.9L169.485 452.159L166.1 449.829L163.167 446.904L160.679 443.38L158.627 439.254L157.002 434.523L155.795 429.187L154.994 423.247L154.59 416.706L154.568 409.566L154.917 401.834L155.623 393.514L156.673 384.617L158.052 375.15L159.746 365.124L161.739 354.552L164.015 343.448L166.561 331.825L169.359 319.701L172.393 307.093L175.649 294.019L179.109 280.501L182.758 266.558L186.58 252.214L190.56 237.492L194.682 222.418L198.931 207.015L203.292 191.312L282.617 -92.5429L287.065 -108.41L291.455 -123.98L295.783 -139.221L300.05 -154.105L304.254 -168.6L308.398 -182.678L312.482 -196.311L316.507 -209.471L320.478 -222.133L324.397 -234.27L328.268 -245.858L332.097 -256.876L335.887 -267.299L339.646 -277.109L343.379 -286.285L347.092 -294.81L350.794 -302.667L354.491 -309.841L358.191 -316.318L361.902 -322.086L365.632 -327.134L369.391 -331.454L373.185 -335.038L377.025 -337.879L380.918 -339.975L384.874 -341.321L388.9 -341.917L393.005 -341.764L397.198 -340.863L401.487 -339.219L405.878 -336.836L410.38 -333.722L415 -329.886L419.744 -325.336L424.618 -320.086L429.628 -314.147L434.779 -307.535L440.076 -300.264L445.522 -292.353L451.12 -283.82L456.874 -274.683L462.784 -264.966L468.851 -254.688L475.077 -243.874L481.46 -232.548L487.998 -220.734L494.691 -208.46L501.533 -195.75L508.522 -182.634L515.653 -169.139L522.919 -155.294L530.315 -141.129L537.832 -126.672L672.963 134.074L680.477 148.612L687.83 162.89L695 176.884L701.969 190.572L708.715 203.934L715.219 216.947L721.462 229.594L727.422 241.857L733.08 253.719L738.417 265.164L743.413 276.178L748.05 286.747L752.308 296.861L756.171 306.509L759.62 315.68L762.639 324.368L765.211 332.566L767.321 340.268L768.955 347.471L770.098 354.171L770.738 360.367L770.862 366.059L770.46 371.248L769.521 375.935L768.036 380.124L765.998 383.82L763.401 387.028L760.238 389.754L756.505 392.007L752.2 393.794L747.32 395.126L741.866 396.012L735.838 396.465L729.239 396.496L722.072 396.117L714.343 395.343L706.057 394.188L697.223 392.665L687.849 390.791L677.946 388.581L667.526 386.051L656.602 383.218L645.189 380.097L633.302 376.706L620.958 373.062L608.175 369.181L594.974 365.081L581.374 360.779L567.397 356.292L553.067 351.637L538.406 346.829L523.44 341.886L508.195 336.824L234.45 245.565L219.253 240.476L204.355 235.459L189.786 230.517L175.575 225.651L161.75 220.863L148.34 216.152L135.371 211.517L122.87 206.958L110.863 202.472L99.3741 198.055L88.426 193.706L78.0413 189.419L68.241 185.189L59.045 181.011L50.4719 176.88L42.5389 172.789L35.2618 168.731L28.6552 164.699L22.7321 160.685L17.5041 156.681L12.9813 152.68L9.1722 148.672L6.08394 144.649L3.72189 140.603L2.08998 136.525L1.19054 132.406L1.02429 128.237L1.59046 124.01L2.88655 119.716L4.90858 115.347L7.65104 110.896L11.1069 106.353L15.2674 101.713L20.1226 96.9672L25.6608 92.1101L31.8691 87.1355L38.7331 82.0379L46.237 76.8122L54.3637 71.4544L63.095 65.9606L72.4111 60.328L82.2914 54.5543L92.7141 48.6379L103.656 42.5781L115.094 36.3751L127.002 30.0298L139.355 23.5438L152.127 16.9199L165.29 10.1613L178.816 3.27262L192.678 -3.74102L206.845 -10.8735L221.288 -18.1178L479.978 -147.564L494.308 -154.706L508.369 -161.683L522.139 -168.476L535.596 -175.065L548.719 -181.431L561.488 -187.552L573.883 -193.411L585.888 -198.986L597.485 -204.259L608.66 -209.209L619.398 -213.818L629.686 -218.066L639.512 -221.936L648.867 -225.41L657.74 -228.47L666.125 -231.099L674.014 -233.282L681.402 -235.003L688.286 -236.247L694.663 -237L700.53 -237.25L705.889 -236.985L710.739 -236.194L715.083 -234.866L718.924 -232.993L722.268 -230.567L725.118 -227.581L727.483 -224.031L729.369 -219.912L730.785 -215.222L731.741 -209.957L732.248 -204.12L732.316 -197.709L731.957 -190.729L731.186 -183.183L730.014 -175.075L728.457 -166.413L726.529 -157.204L724.246 -147.459L721.622 -137.186L718.675 -126.4L715.421 -115.112L711.876 -103.338L708.058 -91.0937L703.984 -78.3966L699.671 -65.2652L695.136 -51.7192L690.396 -37.7798L685.47 -23.469L680.373 -8.80995L675.124 6.17306L669.738 21.4547L565.796 314.463L560.339 329.758L554.963 344.737L549.673 359.371L544.471 373.63L539.358 387.484L534.334 400.905L529.401 413.865L524.557 426.339L519.8 438.299L515.129 449.722L510.541 460.584L506.031 470.862L501.597 480.535L497.232 489.582L492.933 497.986L488.692 505.729L484.504 512.794L480.362 519.167L476.26 524.836L472.188 529.788L468.141 534.013L464.109 537.504L460.085 540.252L456.06 542.253L452.026 543.503L447.975 544L443.898 543.743L439.786 542.734L435.632 540.976L431.427 538.472L427.164 535.229L422.834 531.255L418.431 526.558L413.947 521.15L409.376 515.041L404.711 508.247L399.948 500.783L395.08 492.663L390.104 483.908L385.015 474.535L379.81 464.565L374.486 454.02L369.041 442.923L363.475 431.297L357.786 419.168L351.976 406.56L346.044 393.502L339.993 380.02L333.826 366.143L327.547 351.899L321.159 337.319L314.668 322.433L197.604 52.6849L191.062 37.5797L184.661 22.7394L178.416 8.18896L172.348 -6.04773L166.474 -19.9478L160.814 -33.4893L155.385 -46.6514L150.207 -59.4146L145.298 -71.7605L140.677 -83.6719L136.361 -95.1327L132.37 -106.128L128.72 -116.645L125.43 -126.671L122.515 -136.196L119.992 -145.209L117.878 -153.704L116.187 -161.672L114.934 -169.109L114.133 -176.01L113.797 -182.373L113.938 -188.197L114.567 -193.48L115.695 -198.225L117.331 -202.433L119.483 -206.107L122.159 -209.254L125.365 -211.878L129.106 -213.987L133.386 -215.589L138.207 -216.692L143.571 -217.308L149.478 -217.447L155.926 -217.121L162.914 -216.342L170.438 -215.125L178.492 -213.485L187.07 -211.435L196.164 -208.991L205.766 -206.17L215.865 -202.989L226.449 -199.465L237.505 -195.614L249.019 -191.456L260.976 -187.007L273.359 -182.287L286.149 -177.313L299.329 -172.105L312.876 -166.68L326.771 -161.058L340.991 -155.255L355.512 -149.291L370.31 -143.184L637.178 -32.5623L652.061 -26.3754L666.658 -20.2806L680.94 -14.2827L694.878 -8.38585L708.442 -2.59291L721.605 3.09358L734.339 8.67234L746.619 14.1426L758.417 19.5047L769.71 24.7593L780.473 29.9083L790.684 34.954L800.321 39.8995L809.364 44.7487L817.793 49.5058L825.591 54.1759L832.74 58.7646L839.227 63.2778L845.036 67.7223L850.155 72.1048L854.573 76.4328L858.281 80.714L861.271 84.9563L863.536 89.1679L865.072 93.3572L865.874 97.5329L865.943 101.703L865.276 105.877L863.876 110.064L861.746 114.271L858.89 118.506L855.314 122.78L851.027 127.099L846.037 131.47L840.355 135.903L833.993 140.403L826.965 144.977L819.286 149.632L810.972 154.372L802.042 159.204L792.513 164.131L782.407 169.158L771.745 174.288L760.549 179.523L748.842 184.865L736.65 190.315L723.998 195.874L710.912 201.54L697.42 207.314L683.55 213.191L669.329 219.171L654.788 225.248L639.956 231.418L373.08 342.047L358.234 348.179L343.66 354.171L329.382 360.005L315.426 365.662L301.812 371.125L288.563 376.375L275.699 381.393L263.239 386.162L251.202 390.662L239.604 394.876L228.462 398.784L217.79 402.371L207.6 405.617L197.905 408.506L188.716 411.02L180.042 413.144L171.89 414.862L164.268 416.159L157.18 417.019L150.632 417.43L144.624 417.379L139.16 416.852L134.238 415.84L129.858 414.331L126.018 412.317L122.713 409.789L119.939 406.739L117.69 403.163L115.959 399.054L114.738 394.409L114.017 389.226L113.787 383.503L114.036 377.239L114.751 370.438L115.922 363.1L117.532 355.229L119.569 346.832L122.017 337.914L124.861 328.484L128.083 318.55L131.667 308.123L135.597 297.215L139.853 285.839L144.419 274.01L149.276 261.744L154.406 249.056L159.79 235.967L165.409 222.494L171.244 208.659L177.278 194.483L183.491 179.989L189.865 165.2L196.382 150.142L313.454 -119.634L319.964 -134.574L326.371 -149.213L332.671 -163.521L338.859 -177.468L344.932 -191.025L350.885 -204.165L356.719 -216.858L362.43 -229.078L368.019 -240.799L373.486 -251.996L378.832 -262.645L384.059 -272.723L389.169 -282.208L394.166 -291.079L399.054 -299.318L403.836 -306.905L408.519 -313.825L413.107 -320.061L417.606 -325.6L422.024 -330.43L426.367 -334.539L430.642 -337.918L434.857 -340.559L439.02 -342.456L443.139 -343.604L447.222 -344L451.277 -343.643L455.314 -342.532L459.339 -340.67L463.363 -338.06L467.393 -334.707L471.437 -330.617L475.503 -325.799L479.599 -320.262L483.734 -314.019L487.912 -307.08L492.143 -299.462L496.431 -291.18L500.783 -282.25L505.204 -272.692L509.699 -262.524L514.273 -251.769L518.928 -240.448L523.669 -228.585L528.497 -216.205L533.413 -203.333L538.42 -189.995L543.517 -176.219L548.703 -162.033L553.977 -147.467L559.336 -132.549L564.779 -117.311L570.301 -101.782L668.726 175.692L674.135 191.026L679.412 206.066L684.538 220.787L689.497 235.164L694.272 249.174L698.846 262.795L703.202 276.005L707.322 288.784L711.189 301.113L714.786 312.976L718.095 324.355L721.1 335.235L723.785 345.604L726.132 355.448L728.128 364.757L729.754 373.521L730.999 381.732L731.845 389.383L732.281 396.468L732.293 402.984L731.869 408.928L730.997 414.299L729.666 419.095L727.868 423.32L725.593 426.976L722.833 430.065L719.581 432.594L715.833 434.569L711.582 435.997L706.826 436.888L701.562 437.25L695.788 437.094L689.506 436.433L682.716 435.279L675.421 433.646L667.624 431.547L659.331 429L650.547 426.018L641.281 422.62L631.542 418.822L621.339 414.642L610.683 410.098L599.589 405.21L588.068 399.996L576.138 394.475L563.813 388.668L551.113 382.593L538.054 376.271L524.657 369.722L510.944 362.965L496.935 356.021L482.653 348.909L209.501 212.217L195.281 205.063L181.361 198.027L167.77 191.115L154.538 184.332L141.691 177.683L129.258 171.171L117.266 164.799L105.739 158.57L94.7032 152.483L84.1826 146.541L74.2001 140.74L64.7778 135.082L55.9366 129.563L47.6965 124.18L40.0758 118.93L33.092 113.809L26.7611 108.812L21.0977 103.934L16.115 99.1678L11.8249 94.5083L8.23784 89.9483L5.36258 85.4802L3.20659 81.0966L1.77561 76.7895L1.07397 72.5507L1.10441 68.3717L1.86796 64.244L3.36428 60.1588L5.59124 56.1075L8.54535 52.0813L12.2213 48.0715L16.6125 44.0695L21.7105 40.0668L27.5056 36.0554L33.9865 32.0272L41.1404 27.9744L48.953 23.8899L57.4088 19.7667L66.4908 15.5983L76.1805 11.3787L86.4584 7.10244L97.3038 2.76471L108.695 -1.63898L120.607 -6.11206L133.018 -10.6577L145.902 -15.2781L159.233 -19.975L172.983 -24.749L187.125 -29.6004L201.63 -34.5284L216.469 -39.5314L231.612 -44.6072L505.341 -135.865L520.636 -140.948L535.655 -145.914L550.374 -150.748L564.768 -155.433L578.812 -159.952L592.483 -164.29L605.76 -168.428L618.622 -172.351L631.048 -176.04L643.021 -179.479L654.524 -182.651L665.54 -185.539L676.054 -188.127L686.053 -190.398L695.526 -192.335L704.461 -193.924L712.849 -195.148L720.682 -195.994L727.954 -196.447L734.658 -196.493L740.792 -196.119L746.353 -195.314L751.339 -194.066L755.75 -192.364L759.589 -190.198L762.857 -187.56L765.559 -184.442L767.7 -180.837L769.287 -176.74L770.326 -172.145L770.827 -167.049L770.8 -161.451L770.255 -155.348L769.204 -148.741L767.661 -141.632L765.638 -134.022L763.15 -125.915L760.212 -117.318L756.842 -108.235L753.054 -98.6752L748.868 -88.647L744.3 -78.1609L739.369 -67.2284L734.094 -55.8624L728.494 -44.0769L722.588 -31.8872L716.397 -19.3099L709.939 -6.36267L703.236 6.9356L696.307 20.5649L689.173 34.5042L681.853 48.7312L674.366 63.223L539.238 323.973L531.699 338.48L524.28 352.702L516.989 366.608L509.833 380.17L502.817 393.359L495.947 406.146L489.227 418.503L482.66 430.404L476.248 441.823L469.993 452.733L463.896 463.112L457.957 472.935L452.175 482.181L446.548 490.827L441.074 498.855L435.75 506.246L430.572 512.982L425.536 519.046L420.637 524.425L415.87 529.106L411.227 533.075L406.704 536.323L402.292 538.842L397.986 540.624L393.776 541.662L389.654 541.955L385.614 541.497L381.646 540.29L377.742 538.333L373.893 535.63L370.091 532.183L366.326 527.999L362.591 523.085L358.877 517.449L355.176 511.103L351.479 504.057L347.779 496.326L344.068 487.924L340.34 478.867L336.586 469.173L332.802 458.862L328.981 447.953L325.118 436.469L321.208 424.431L317.247 411.865L313.232 398.796L309.159 385.248L305.027 371.251L300.834 356.83L296.578 342.017L292.261 326.839L287.883 311.327L283.446 295.513L204.111 11.6383L199.731 -4.11784L195.46 -19.5781L191.314 -34.7156L187.306 -49.5047L183.454 -63.9205L179.771 -77.9391L176.275 -91.5379L172.98 -104.696L169.904 -117.391L167.061 -129.607L164.467 -141.323L162.14 -152.525L160.093 -163.197L158.343 -173.325L156.904 -182.896L155.793 -191.9L155.021 -200.327L154.605 -208.169L154.557 -215.419L154.89 -222.071L155.616 -228.123L156.747 -233.571L158.294 -238.413L160.266 -242.652L162.673 -246.287L165.523 -249.323L168.823 -251.763L172.581 -253.612L176.801 -254.879L181.488 -255.571L186.644 -255.696L192.273 -255.267L198.376 -254.293L204.951 -252.788L211.999 -250.765L219.516 -248.239L227.499 -245.224L235.942 -241.738L244.841 -237.797L254.187 -233.419L263.972 -228.622L274.186 -223.425L284.817 -217.847L295.854 -211.909L307.284 -205.631L319.09 -199.033L331.259 -192.136L343.771 -184.962L356.611 -177.531L369.757 -169.866L383.191 -161.986L396.89 -153.914L410.833 -145.671L660.08 1.98022L673.848 10.168L687.333 18.2191L700.504 26.1252L713.333 33.8784L725.794 41.4721L737.858 48.9004L749.499 56.1584L760.692 63.2423L771.411 70.1488L781.631 76.8758L791.33 83.422L800.486 89.787L809.076 95.9711L817.081 101.976L824.482 107.803L831.261 113.455L837.4 118.935L842.886 124.249L847.703 129.399L851.84 134.393L855.285 139.236L858.028 143.935L860.061 148.495L861.377 152.926L861.972 157.234L861.842 161.429L860.983 165.517L859.397 169.508L857.083 173.411L854.045 177.235L850.286 180.988L845.813 184.68L840.633 188.32L834.754 191.916L828.187 195.478L820.944 199.014L813.038 202.533L804.484 206.042L795.297 209.55L785.497 213.063L775.1 216.589L764.129 220.134L752.603 223.704L740.545 227.305L727.98 230.942L714.932 234.618L701.426 238.338L687.489 242.105L673.149 245.919L658.434 249.784L643.374 253.7L627.997 257.667L333.113 333.102L317.719 337.007L302.627 340.805L287.863 344.481L273.452 348.021L259.42 351.41L245.789 354.633L232.582 357.674L219.819 360.517L207.521 363.147L195.706 365.549L184.391 367.706L173.594 369.603L163.328 371.224L153.607 372.555L144.443 373.58L135.847 374.284L127.828 374.654L120.395 374.675L113.553 374.335L107.308 373.62L101.664 372.518L96.6221 371.018L92.1844 369.11L88.3502 366.782L85.1175 364.026L82.4834 360.834L80.4434 357.197L78.9918 353.111L78.1216 348.569L77.8247 343.567L78.0917 338.102L78.9122 332.171L80.2747 325.773L82.1664 318.909L84.5739 311.579L87.4826 303.787L90.8771 295.536L94.7411 286.83L99.0575 277.677L103.809 268.083L108.976 258.057L114.541 247.609L120.484 236.75L126.785 225.493L133.423 213.85L140.377 201.838L147.628 189.471L155.153 176.767L162.931 163.745L170.94 150.422L179.16 136.821L187.569 122.962L340.079 -127.462L348.619 -141.458L357.022 -155.187L365.28 -168.618L373.381 -181.721L381.319 -194.47L389.086 -206.835L396.676 -218.79L404.083 -230.307L411.303 -241.36L418.333 -251.924L425.17 -261.974L431.812 -271.488L438.258 -280.441L444.509 -288.814L450.564 -296.586L456.426 -303.737L462.097 -310.25L467.58 -316.108L472.879 -321.295L477.998 -325.797L482.942 -329.603L487.717 -332.7L492.329 -335.079L496.785 -336.733L501.092 -337.654L505.257 -337.837L509.289 -337.28L513.196 -335.979L516.985 -333.935L520.667 -331.15L524.249 -327.626L527.741 -323.367L531.152 -318.38L534.491 -312.673L537.766 -306.255L540.988 -299.137L544.163 -291.332L547.302 -282.852L550.411 -273.714L553.501 -263.935L556.577 -253.532L559.647 -242.526L562.719 -230.937L565.798 -218.787L568.89 -206.1L572.002 -192.9L575.137 -179.213L578.3 -165.066L581.494 -150.486L584.722 -135.501L587.988 -120.141L591.291 -104.437L594.632 -88.4178L654.478 200.442L657.797 216.545L661.03 232.353L664.164 247.836L667.186 262.969L670.083 277.725L672.841 292.078L675.446 306.006L677.882 319.484L680.137 332.491L682.194 345.007L684.04 357.013L685.66 368.49L687.039 379.423L688.163 389.795L689.018 399.593L689.589 408.804L689.862 417.419L689.825 425.426L689.464 432.818L688.767 439.589L687.721 445.732L686.315 451.246L684.538 456.126L682.38 460.373L679.832 463.987L676.885 466.97L673.53 469.326L669.762 471.059L665.573 472.175L660.959 472.682L655.915 472.588L650.439 471.904L644.528 470.641L638.181 468.81L631.398 466.426L624.18 463.501L616.531 460.053L608.452 456.096L599.949 451.649L591.028 446.729L581.696 441.355L571.961 435.547L561.832 429.323L551.321 422.706L540.438 415.716L529.197 408.374L517.612 400.703L505.698 392.725L493.471 384.462L480.95 375.937L468.151 367.172L455.096 358.191L441.804 349.015L203.179 183.874L189.936 174.683L176.96 165.646L164.28 156.773L151.922 148.075L139.915 139.561L128.286 131.238L117.061 123.113L106.264 115.193L95.9227 107.482L86.0597 99.9855L76.6987 92.7059L67.8623 85.6455L59.5721 78.8057L51.8484 72.187L44.7109 65.7891L38.1777 59.6106L32.2659 53.6494L26.9916 47.9027L22.3693 42.3669L18.4122 37.0376L15.1323 31.91L12.54 26.9783L10.6445 22.2361L9.45335 17.6769L8.97266 13.2933L9.20699 9.07767L10.1595 5.02164L11.8316 1.11677L14.2233 -2.64563L17.333 -6.27473L21.1576 -9.77971L25.6923 -13.1701L30.9308 -16.4553L36.8654 -19.6449L43.4867 -22.7485L50.7837 -25.7754L58.7442 -28.735L67.3544 -31.6366L76.5991 -34.4892L86.4614 -37.3013L96.9236 -40.0814L107.966 -42.8375L119.569 -45.5773L131.709 -48.3078L144.365 -51.0359L157.511 -53.7677L171.124 -56.5087L185.176 -59.264L199.64 -62.0379L214.489 -64.8342L229.694 -67.6559L245.225 -70.5053L261.052 -73.384L544.499 -124.658L560.195 -127.471L575.589 -130.202L590.655 -132.839L605.364 -135.368L619.693 -137.777L633.616 -140.053L647.11 -142.18L660.153 -144.146L672.722 -145.937L684.799 -147.537L696.365 -148.933L707.401 -150.11L717.893 -151.054L727.824 -151.75L737.182 -152.185L745.955 -152.344L754.131 -152.215L761.702 -151.782L768.66 -151.035L774.999 -149.959L780.713 -148.544L785.799 -146.778L790.256 -144.649L794.082 -142.148L797.278 -139.265L799.847 -135.992L801.791 -132.321L803.117 -128.244L803.83 -123.755L803.938 -118.85L803.449 -113.524L802.374 -107.774L800.723 -101.598L798.509 -94.9935L795.746 -87.9621L792.448 -80.5045L788.629 -72.6228L784.307 -64.3207L779.499 -55.6027L774.223 -46.4746L768.496 -36.9434L762.34 -27.0175L755.774 -16.7061L748.819 -6.01995L741.495 5.02922L733.824 16.4285L725.829 28.1636L717.532 40.2194L708.954 52.5795L700.12 65.2264L691.051 78.1415L681.77 91.3054L503.138 343.568L493.782 356.73L484.588 369.612L475.57 382.186L466.736 394.425L458.097 406.3L449.661 417.785L441.434 428.853L433.424 439.478L425.636 449.636L418.075 459.301L410.744 468.449L403.645 477.06L396.781 485.11L390.153 492.579L383.76 499.448L377.601 505.698L371.675 511.312L365.979 516.274L360.509 520.57L355.263 524.186L350.235 527.111L345.419 529.333L340.81 530.845L336.402 531.638L332.187 531.706L328.157 531.046L324.305 529.654L320.622 527.53L317.099 524.672L313.728 521.085L310.5 516.769L307.404 511.732L304.432 505.98L301.574 499.52L298.819 492.363L296.16 484.52L293.586 476.005L291.087 466.83L288.655 457.013L286.28 446.571L283.955 435.522L281.67 423.886L279.417 411.685L277.189 398.941L274.98 385.678L272.781 371.921L270.587 357.696L268.393 343.029L266.193 327.95L263.984 312.486L261.76 296.668L259.52 280.526L219.46 -11.876L217.229 -28.2491L215.061 -44.3283L212.967 -60.0846L210.957 -75.4898L209.044 -90.5167L207.24 -105.139L205.556 -119.331L204.006 -133.069L202.602 -146.33L201.358 -159.093L200.287 -171.336L199.402 -183.04L198.717 -194.188L198.245 -204.762L198 -214.748L197.994 -224.133L198.241 -232.902L198.753 -241.047L199.544 -248.557L200.625 -255.425L202.007 -261.643L203.704 -267.208L205.724 -272.116L208.08 -276.365L210.779 -279.954L213.831 -282.885L217.245 -285.16L221.028 -286.783L225.187 -287.759L229.727 -288.095L234.653 -287.799L239.971 -286.881L245.681 -285.35L251.788 -283.219L258.292 -280.501L265.193 -277.21L272.49 -273.361L280.181 -268.97L288.262 -264.055L296.73 -258.633L305.579 -252.725L314.802 -246.348L324.392 -239.525L334.339 -232.276L344.634 -224.622L355.266 -216.587L366.221 -208.192L377.487 -199.462L389.05 -190.419L400.893 -181.088L413 -171.492L425.354 -161.655L437.935 -151.601L664.746 30.2056L677.393 40.3634L689.79 50.3522L701.91 60.1588L713.727 69.771L725.214 79.1778L736.343 88.369L747.09 97.3355L757.428 106.069L767.334 114.563L776.782 122.81L785.75 130.806L794.216 138.547L802.157 146.029L809.552 153.25L816.383 160.21L822.631 166.907L828.277 173.343L833.306 179.518L837.703 185.436L841.454 191.099L844.545 196.512L846.967 201.678L848.708 206.604L849.762 211.296L850.12 215.76L849.777 220.003L848.73 224.033L846.975 227.859L844.512 231.489L841.342 234.933L837.466 238.199L832.889 241.297L827.614 244.238L821.651 247.031L815.005 249.686L807.688 252.214L799.711 254.624L791.086 256.928L781.827 259.135L771.951 261.255L761.474 263.297L750.415 265.272L738.794 267.188L726.63 269.055L713.948 270.879L700.769 272.671L687.119 274.436L673.022 276.183L658.506 277.917L643.598 279.645L628.325 281.371L612.718 283.1L596.806 284.837L310.549 315.706L294.627 317.403L279.004 319.042L263.709 320.613L248.769 322.105L234.211 323.507L220.06 324.808L206.341 325.995L193.078 327.057L180.293 327.98L168.007 328.752L156.241 329.36L145.012 329.792L134.34 330.032L124.238 330.07L114.723 329.891L105.808 329.482L97.5036 328.831L89.8216 327.924L82.7707 326.75L76.3584 325.296L70.5907 323.551L65.4723 321.503L61.0063 319.141L57.1944 316.456L54.0368 313.437L51.5322 310.076L49.6781 306.364L48.4702 302.294L47.9033 297.858L47.9704 293.052L48.6633 287.87L49.9729 282.307L51.8881 276.361L54.3973 270.029L57.4874 263.311L61.1441 256.205L65.3522 248.713L70.0956 240.837L75.3568 232.58L81.1178 223.946L87.3595 214.941L94.0623 205.571L101.206 195.844L108.768 185.768L116.728 175.353L125.064 164.612L133.752 153.555L142.769 142.196L152.093 130.55L161.698 118.633L171.562 106.46L181.659 94.0494L191.967 81.42L376.981 -144.798L387.253 -157.321L397.347 -169.584L407.249 -181.559L416.947 -193.22L426.429 -204.538L435.684 -215.489L444.704 -226.045L453.48 -236.181L462.004 -245.872L470.27 -255.095L478.273 -263.825L486.008 -272.04L493.471 -279.718L500.661 -286.838L507.575 -293.382L514.214 -299.329L520.577 -304.663L526.665 -309.367L532.482 -313.426L538.028 -316.827L543.31 -319.556L548.33 -321.602L553.094 -322.956L557.608 -323.61L561.878 -323.556L565.912 -322.79L569.716 -321.308L573.3 -319.106L576.672 -316.185L579.841 -312.546L582.816 -308.191L585.606 -303.123L588.222 -297.35L590.674 -290.877L592.973 -283.713L595.127 -275.869L597.148 -267.357L599.047 -258.189L600.832 -248.381L602.515 -237.95L604.106 -226.911L605.614 -215.285L607.048 -203.093L608.419 -190.354L609.734 -177.094L611.002 -163.335L612.232 -149.103L613.431 -134.424L614.605 -119.325L615.762 -103.836L616.906 -87.9837L618.044 -71.7997L619.18 -55.3144L639.249 239.248L640.33 255.521L641.362 271.475L642.335 287.079L643.24 302.306L644.068 317.128L644.807 331.519L645.446 345.454L645.974 358.908L646.38 371.859L646.652 384.285L646.778 396.165L646.746 407.48L646.543 418.213L646.157 428.346L645.576 437.865L644.788 446.757L643.78 455.008L642.541 462.609L641.059 469.551L639.323 475.825L637.321 481.426L635.043 486.349L632.479 490.591L629.618 494.151L626.452 497.028L622.973 499.225L619.171 500.744L615.041 501.589L610.575 501.767L605.767 501.285L600.613 500.151L595.11 498.376L589.252 495.971L583.039 492.947L576.469 489.32L569.542 485.105L562.258 480.316L554.62 474.972L546.629 469.091L538.291 462.691L529.61 455.793L520.591 448.417L511.243 440.585L501.573 432.319L491.591 423.643L481.308 414.579L470.734 405.152L459.882 395.385L448.767 385.304L437.402 374.934L425.804 364.3L413.989 353.426L188.14 144.781L176.39 133.881L164.896 123.179L153.686 112.688L142.785 102.423L132.219 92.3963L122.013 82.618L112.193 73.0989L102.781 63.8479L93.8036 54.8735L85.282 46.1824L77.2392 37.7807L69.6966 29.6735L62.6751 21.8644L56.1943 14.3566L50.2731 7.15175L44.9293 0.250854L40.1797 -6.34627L36.0396 -12.6406L32.5235 -18.634L29.6445 -24.3294L27.4144 -29.7304L25.8438 -34.8415L24.9418 -39.6681L24.7161 -44.216L25.173 -48.4918L26.3175 -52.5031L28.1531 -56.2577L30.6814 -59.7641L33.9031 -63.0312L37.817 -66.0684L42.4205 -68.8856L47.7093 -71.493L53.6779 -73.9009L60.3191 -76.12L67.624 -78.1613L75.5826 -80.0356L84.1831 -81.754L93.4124 -83.3277L103.256 -84.7676L113.698 -86.0847L124.72 -87.2897L136.305 -88.3934L148.431 -89.406L161.079 -90.3376L174.225 -91.198L187.846 -91.9965L201.918 -92.742L216.413 -93.443L231.306 -94.1073L246.57 -94.7426L262.175 -95.3554L278.092 -95.9521L565.732 -106.263L581.802 -106.824L597.578 -107.351L613.029 -107.835L628.127 -108.269L642.846 -108.642L657.157 -108.946L671.036 -109.17L684.459 -109.305L697.4 -109.338L709.839 -109.259L721.754 -109.057L733.125 -108.719L743.933 -108.235L754.161 -107.591L763.794 -106.777L772.816 -105.779L781.215 -104.586L788.979 -103.186L796.097 -101.567L802.562 -99.718L808.365 -97.627L813.501 -95.2832L817.965 -92.676L821.756 -89.7951L824.871 -86.6308L827.312 -83.174L829.079 -79.4158L830.175 -75.3485L830.607 -70.9645L830.379 -66.2574L829.498 -61.2212L827.975 -55.8509L825.818 -50.1424L823.04 -44.0923L819.652 -37.6984L815.669 -30.959L811.106 -23.8739L805.979 -16.4437L800.305 -8.6697L794.101 -0.55483L787.388 7.89721L780.185 16.6817L772.513 25.7927L764.393 35.2233L755.848 44.9652L746.901 55.0093L737.574 65.3454L727.893 75.962L717.88 86.8466L707.561 97.9858L696.961 109.365L686.105 120.968L675.018 132.779L475.073 345.214L463.927 357.029L452.973 368.604L442.226 379.913L431.701 390.929L421.412 401.627L411.37 411.979L401.587 421.961L392.074 431.548L382.84 440.716L373.893 449.44L365.241 457.697L356.889 465.466L348.844 472.723L341.109 479.45L333.687 485.625L326.58 491.23L319.79 496.246L313.317 500.658L307.159 504.45L301.315 507.608L295.783 510.118L290.559 511.968L285.638 513.149L281.017 513.651L276.687 513.466L272.644 512.589L268.881 511.014L265.388 508.739L262.158 505.762L259.182 502.082L256.45 497.701L253.953 492.622L251.681 486.849L249.622 480.389L247.767 473.249L246.104 465.438L244.623 456.967L243.311 447.847L242.158 438.093L241.153 427.72L240.284 416.745L239.541 405.184L238.911 393.058L238.386 380.387L237.953 367.193L237.604 353.499L237.328 339.33L237.115 324.711L236.958 309.668L236.847 294.228L236.774 278.422L236.733 262.276L236.715 245.823L236.717 -49.4921L236.74 -65.8798L236.788 -81.9524L236.868 -97.6801L236.989 -113.034L237.158 -127.985L237.383 -142.507L237.675 -156.573L238.042 -170.157L238.494 -183.237L239.042 -195.789L239.696 -207.791L240.466 -219.224L241.364 -230.067L242.401 -240.304L243.588 -249.918L244.937 -258.895L246.457 -267.22L248.162 -274.883L250.061 -281.873L252.166 -288.182L254.488 -293.801L257.036 -298.725L259.821 -302.95L262.853 -306.474L266.14 -309.296L269.693 -311.415L273.518 -312.835L277.624 -313.558L282.017 -313.589L286.705 -312.936L291.693 -311.606L296.985 -309.608L302.586 -306.953L308.499 -303.654L314.727 -299.723L321.27 -295.175L328.131 -290.026L335.308 -284.293L342.799 -277.994L350.604 -271.148L358.717 -263.775L367.136 -255.896L375.854 -247.533L384.865 -238.709L394.162 -229.446L403.736 -219.769L413.577 -209.702L423.675 -199.271L434.018 -188.501L444.594 -177.417L455.388 -166.047L466.386 -154.416L477.572 -142.551L677.498 69.8693L688.536 81.6359L699.338 93.1909L709.877 104.518L720.13 115.602L730.072 126.428L739.677 136.984L748.921 147.256L757.781 157.234L766.234 166.907L774.256 176.267L781.826 185.306L788.922 194.018L795.523 202.395L801.611 210.435L807.165 218.132L812.169 225.486L816.604 232.495L820.456 239.157L823.71 245.474L826.351 251.449L828.368 257.082L829.75 262.377L830.486 267.34L830.568 271.975L829.99 276.288L828.744 280.286L826.828 283.977L824.238 287.368L820.973 290.468L817.032 293.287L812.418 295.835L807.134 298.122L801.183 300.158L794.573 301.955L787.31 303.525L779.405 304.878L770.866 306.026L761.707 306.982L751.941 307.758L741.583 308.365L730.648 308.816L719.155 309.122L707.122 309.296L694.569 309.349L681.519 309.292L667.993 309.137L654.016 308.894L639.612 308.574L624.807 308.186L609.627 307.741L594.102 307.246L578.259 306.711L274.532 295.83L258.682 295.23L243.15 294.613L227.967 293.972L213.159 293.3L198.756 292.59L184.782 291.833L171.264 291.022L158.227 290.146L145.693 289.198L133.685 288.166L122.223 287.041L111.328 285.811L101.018 284.468L91.3096 282.999L82.2187 281.395L73.7596 279.642L65.9452 277.732L58.7868 275.652L52.2943 273.392L46.4761 270.941L41.3389 268.288L36.8883 265.423L33.1279 262.335L30.0601 259.016L27.6857 255.455L26.0038 251.644L25.0123 247.575L24.7074 243.239L25.0839 238.63L26.1351 233.741L27.853 228.566L30.2281 223.1L33.2496 217.338L36.9054 211.278L41.1821 204.917L46.0651 198.252L51.5386 191.284L57.5856 184.012L64.1881 176.437L71.3271 168.561L78.9825 160.388L87.1335 151.922L95.7584 143.167L104.835 134.131L114.339 124.82L124.247 115.242L134.535 105.408L145.178 95.3266L156.15 85.0106L167.425 74.472L178.978 63.7244L190.781 52.7822L404.658 -144.809L416.63 -155.851L428.399 -166.673L439.946 -177.251L451.257 -187.559L462.315 -197.573L473.106 -207.266L483.617 -216.615L493.834 -225.595L503.748 -234.182L513.347 -242.353L522.622 -250.085L531.566 -257.357L540.172 -264.146L548.434 -270.433L556.346 -276.197L563.906 -281.419L571.111 -286.082L577.959 -290.168L584.449 -293.662L590.583 -296.549L596.362 -298.816L601.788 -300.45L606.864 -301.439L611.596 -301.776L615.987 -301.45L620.044 -300.456L623.773 -298.787L627.182 -296.439L630.279 -293.41L633.073 -289.699L635.573 -285.305L637.789 -280.231L639.731 -274.48L641.41 -268.058L642.837 -260.969L644.023 -253.223L644.981 -244.828L645.722 -235.796L646.259 -226.139L646.603 -215.872L646.767 -205.008L646.763 -193.566L646.604 -181.563L646.301 -169.019L645.867 -155.954L645.313 -142.391L644.651 -128.353L643.891 -113.864L643.046 -98.9496L642.124 -83.6365L641.137 -67.9523L640.094 -51.9255L639.003 -35.5853L618.928 259.008L617.792 275.43L616.653 291.542L615.506 307.316L614.346 322.722L613.167 337.73L611.962 352.312L610.724 366.441L609.446 380.091L608.119 393.238L606.735 405.857L605.285 417.926L603.76 429.423L602.15 440.328L600.445 450.623L598.635 460.29L596.711 469.313L594.661 477.678L592.475 485.372L590.144 492.383L587.656 498.702L585.002 504.319L582.171 509.229L579.154 513.425L575.941 516.905L572.523 519.666L568.891 521.708L565.036 523.031L560.951 523.639L556.627 523.535L552.058 522.725L547.238 521.216L542.16 519.018L536.82 516.138L531.213 512.591L525.337 508.387L519.188 503.542L512.764 498.07L506.064 491.989L499.088 485.316L491.837 478.07L484.313 470.27L476.519 461.939L468.457 453.098L460.133 443.769L451.553 433.977L442.722 423.745L433.649 413.1L424.343 402.065L414.812 390.668L405.068 378.936L395.122 366.894L384.987 354.571L374.677 341.994L189.661 115.767L179.398 103.185L169.35 90.8253L159.542 78.7076L149.997 66.8489L140.74 55.2655L131.794 43.9727L123.182 32.9848L114.928 22.3147L107.054 11.9747L99.5825 1.9754L92.5352 -7.67335L85.9331 -16.9631L79.7964 -25.8864L74.1447 -34.4369L68.997 -42.6097L64.3711 -50.4006L60.284 -57.8069L56.7518 -64.8267L53.7896 -71.4594L51.4111 -77.7054L49.6294 -83.5661L48.4559 -89.044L47.9011 -94.1425L47.9742 -98.866L48.6829 -103.22L50.0338 -107.21L52.0321 -110.843L54.6814 -114.127L57.9843 -117.071L61.9415 -119.684L66.5525 -121.975L71.8154 -123.955L77.7267 -125.634L84.2814 -127.025L91.4731 -128.139L99.294 -128.988L107.735 -129.584L116.784 -129.941L126.431 -130.071L136.661 -129.987L147.458 -129.703L158.808 -129.231L170.691 -128.585L183.09 -127.778L195.983 -126.823L209.349 -125.733L223.166 -124.519L237.409 -123.195L252.054 -121.772L267.075 -120.261L282.446 -118.674L298.137 -117.022L314.122 -115.313L600.364 -84.4412L616.211 -82.7066L631.746 -80.9782L646.94 -79.2521L661.764 -77.5236L676.189 -75.7872L690.189 -74.037L703.737 -72.2664L716.807 -70.4682L729.377 -68.6348L741.422 -66.7582L752.92 -64.8298L763.851 -62.8408L774.196 -60.7819L783.937 -58.6436L793.056 -56.4161L801.538 -54.0895L809.37 -51.6537L816.539 -49.0984L823.034 -46.4135L828.845 -43.5887L833.965 -40.614L838.388 -37.4793L842.107 -34.1746L845.12 -30.6906L847.426 -27.0177L849.023 -23.1471L849.914 -19.0701L850.101 -14.7786L849.588 -10.2649L848.381 -5.52184L846.487 -0.542877L843.916 4.67788L840.677 10.1457L836.782 15.8651L832.244 21.8399L827.076 28.073L821.295 34.5667L814.916 41.3221L807.958 48.3399L800.44 55.6193L792.381 63.1591L783.802 70.9568L774.725 79.009L765.173 87.3115L755.169 95.859L744.738 104.645L733.904 113.662L722.693 122.902L711.131 132.355L699.244 142.012L687.06 151.86L674.605 161.887L435.123 353.86L422.59 363.868L410.29 373.653L398.24 383.193L386.458 392.462L374.96 401.438L363.761 410.095L352.876 418.412L342.319 426.364L332.1 433.93L322.231 441.087L312.722 447.813L303.582 454.087L294.817 459.889L286.434 465.2L278.439 470L270.836 474.272L263.627 477.999L256.814 481.164L250.398 483.753L244.379 485.751L238.756 487.147L233.526 487.929L228.685 488.085L224.23 487.607L220.156 486.488L216.456 484.721L213.123 482.3L210.149 479.224L207.527 475.488L205.247 471.093L203.3 466.039L201.674 460.328L200.359 453.965L199.343 446.954L198.616 439.302L198.163 431.018L197.974 422.111L198.034 412.592L198.331 402.474L198.851 391.771L199.582 380.498L200.509 368.672L201.62 356.312L202.901 343.437L204.338 330.068L205.919 316.228L207.631 301.938L209.46 287.223L211.396 272.11L213.425 256.625L215.536 240.794L217.719 224.647L257.764 -67.7551L260.019 -84.1278L262.255 -100.201L264.475 -115.942L266.682 -131.323L268.881 -146.313L271.074 -160.884L273.269 -175.008L275.469 -188.657L277.682 -201.807L279.915 -214.433L282.174 -226.51L284.467 -238.018L286.803 -248.934L289.19 -259.239L291.636 -268.914L294.15 -277.944L296.743 -286.311L299.422 -294.003L302.199 -301.006L305.082 -307.309L308.081 -312.903L311.205 -317.781L314.464 -321.935L317.868 -325.361L321.425 -328.056L325.145 -330.018L329.036 -331.247L333.106 -331.745L337.364 -331.515L341.816 -330.562L346.47 -328.892L351.333 -326.512L356.409 -323.433L361.704 -319.665L367.223 -315.22L372.97 -310.112L378.948 -304.355L385.159 -297.966L391.604 -290.963L398.285 -283.363L405.201 -275.186L412.352 -266.454L419.734 -257.189L427.346 -247.413L435.184 -237.149L443.242 -226.424L451.516 -215.261L459.998 -203.687L468.681 -191.728L477.557 -179.413L486.615 -166.768L495.846 -153.821L505.237 -140.602L674.418 98.304L683.848 111.647L693.084 124.758L702.103 137.615L710.882 150.2L719.399 162.493L727.631 174.479L735.556 186.141L743.152 197.464L750.395 208.434L757.266 219.038L763.743 229.264L769.806 239.103L775.434 248.546L780.608 257.583L785.31 266.209L789.521 274.419L793.225 282.206L796.406 289.569L799.049 296.506L801.139 303.015L802.663 309.097L803.608 314.753L803.966 319.985L803.724 324.797L802.876 329.194L801.413 333.18L799.33 336.762L796.623 339.948L793.287 342.745L789.321 345.163L784.724 347.21L779.498 348.898L773.645 350.236L767.169 351.238L760.074 351.914L752.368 352.278L744.058 352.343L735.155 352.121L725.668 351.627L715.611 350.874L704.997 349.877L693.842 348.651L682.161 347.208L669.973 345.564L657.297 343.734L644.152 341.731L630.561 339.569L616.546 337.263L602.13 334.826L587.339 332.271L572.199 329.613L556.735 326.862L540.976 324.033L257.514 272.751L241.75 269.879L226.289 267.036L211.16 264.22L196.394 261.429L182.019 258.66L168.062 255.908L154.551 253.17L141.512 250.439L128.968 247.711L116.945 244.979L105.465 242.236L94.5498 239.476L84.2191 236.689L74.4924 233.869L65.3873 231.006L56.9201 228.092L49.1057 225.119L41.9577 222.075L35.488 218.954L29.7072 215.744L24.6244 212.436L20.2469 209.021L16.5807 205.489L13.6301 201.831L11.3981 198.038L9.88587 194.1L9.09304 190.01L9.01775 185.757L9.65667 181.335L11.0048 176.736L13.0557 171.953L15.8015 166.978L19.2327 161.806L23.3386 156.431L28.1069 150.849L33.5241 145.055L39.5752 139.046L46.2441 132.819L53.5134 126.372L61.3646 119.704L69.7779 112.815L78.7327 105.706L88.2071 98.3778L98.1784 90.8333L108.623 83.0759L119.517 75.1099L130.834 66.9406L142.55 58.5742L154.637 50.0181L167.068 41.2804L179.817 32.3703L192.854 23.298L206.153 14.0744L444.775 -151.059L458.016 -160.193L471.016 -169.129L483.755 -177.842L496.212 -186.311L508.371 -194.513L520.213 -202.425L531.723 -210.024L542.886 -217.29L553.687 -224.199L564.115 -230.731L574.157 -236.864L583.803 -242.578L593.045 -247.852L601.874 -252.669L610.283 -257.009L618.266 -260.854L625.82 -264.187L632.942 -266.993L639.628 -269.256L645.878 -270.962L651.692 -272.098L657.072 -272.651L662.02 -272.612L666.54 -271.971L670.635 -270.718L674.311 -268.847L677.574 -266.353L680.432 -263.23L682.893 -259.476L684.965 -255.088L686.658 -250.067L687.984 -244.413L688.951 -238.13L689.573 -231.221L689.861 -223.692L689.828 -215.549L689.487 -206.801L688.852 -197.458L687.937 -187.532L686.755 -177.034L685.321 -165.979L683.649 -154.383L681.755 -142.262L679.652 -129.636L677.356 -116.522L674.881 -102.942L672.241 -88.9179L669.452 -74.473L666.525 -59.6314L663.477 -44.4185L660.32 -28.8606L657.067 -12.985L653.731 3.18001L593.887 292.009L590.554 307.961L587.259 323.592L584.002 338.871L580.782 353.768L577.595 368.255L574.438 382.302L571.309 395.883L568.202 408.971L565.113 421.541L562.036 433.568L558.965 445.03L555.894 455.904L552.816 466.17L549.723 475.808L546.608 484.802L543.461 493.133L540.277 500.787L537.044 507.751L533.755 514.012L530.401 519.559L526.973 524.385L523.462 528.481L519.858 531.842L516.153 534.463L512.338 536.341L508.405 537.477L504.344 537.87L500.148 537.522L495.809 536.438L491.319 534.623L486.671 532.083L481.859 528.828L476.876 524.866L471.718 520.211L466.379 514.873L460.855 508.869L455.141 502.213L449.237 494.923L443.138 487.016L436.844 478.512L430.354 469.432L423.669 459.797L416.789 449.631L409.717 438.956L402.454 427.798L395.006 416.181L387.377 404.133L379.571 391.681L371.596 378.851L363.459 365.672L355.169 352.173L346.734 338.382L185.687 73.9488L177.318 60.145L169.143 46.6038L161.183 33.3465L153.459 20.393L145.993 7.76249L138.807 -4.52699L131.921 -16.4586L125.356 -28.0167L119.133 -39.1868L113.272 -49.9555L107.794 -60.3108L102.717 -70.2416L98.0609 -79.7385L93.8434 -88.7932L90.0822 -97.3982L86.7943 -105.548L83.9956 -113.238L81.7014 -120.464L79.926 -127.225L78.6828 -133.519L77.9842 -139.346L77.8416 -144.708L78.265 -149.608L79.2636 -154.048L80.8454 -158.034L83.0168 -161.571L85.7835 -164.666L89.1495 -167.326L93.1176 -169.56L97.6894 -171.377L102.865 -172.788L108.643 -173.802L115.021 -174.433L121.994 -174.692L129.558 -174.592L137.706 -174.147L146.429 -173.37L155.718 -172.276L165.561 -170.879L175.946 -169.196L186.86 -167.24L198.286 -165.027L210.21 -162.573L222.613 -159.894L235.477 -157.006L248.78 -153.923L262.502 -150.662L276.62 -147.238L291.111 -143.667L305.95 -139.962L321.112 -136.139L336.57 -132.212L615.836 -60.7787L631.437 -56.7728L646.746 -52.8172L661.732 -48.9126L676.367 -45.0589L690.619 -41.255L704.463 -37.4992L717.869 -33.7893L730.813 -30.1221L743.267 -26.4937L755.209 -22.8999L766.614 -19.3356L777.459 -15.7952L787.725 -12.2727L797.391 -8.76135L806.438 -5.25415L814.85 -1.74361L822.61 1.77816L829.704 5.31924L836.119 8.8881L841.844 12.4934L846.868 16.144L851.183 19.8489L854.782 23.617L857.659 27.4575L859.812 31.3793L861.237 35.3913L861.933 39.5024L861.903 43.7213L861.147 48.0561L859.671 52.515L857.48 57.1057L854.58 61.8356L850.981 66.7114L846.692 71.7397L841.725 76.9262L836.093 82.2763L829.81 87.7947L822.892 93.4852L815.355 99.3514L807.219 105.396L798.501 111.62L789.223 118.025L779.406 124.612L769.073 131.379L758.247 138.325L746.953 145.447L735.215 152.744L723.061 160.209L710.516 167.839L697.608 175.627L684.365 183.565L670.815 191.648L656.987 199.865L407.717 347.524L393.827 355.731L380.184 363.763L366.813 371.596L353.733 379.212L340.964 386.587L328.526 393.702L316.437 400.534L304.713 407.062L293.369 413.267L282.421 419.127L271.881 424.621L261.762 429.731L252.074 434.437L242.826 438.72L234.028 442.561L225.686 445.944L217.806 448.852L210.393 451.268L203.45 453.177L196.98 454.565L190.983 455.419L185.459 455.726L180.406 455.476L175.824 454.657L171.707 453.262L168.051 451.281L164.851 448.71L162.1 445.541L159.791 441.772L157.914 437.4L156.46 432.422L155.42 426.84L154.783 420.655L154.535 413.87L154.666 406.488L155.162 398.515L156.01 389.959L157.196 380.829L158.705 371.133L160.522 360.883L162.633 350.092L165.021 338.775L167.671 326.946L170.567 314.622L173.694 301.822L177.034 288.565L180.573 274.871L184.295 260.762L188.183 246.262L192.223 231.393L196.398 216.181L200.695 200.653L205.097 184.835L284.436 -99.04L288.861 -114.79L293.225 -130.23L297.529 -145.329L301.77 -160.058L305.95 -174.387L310.069 -188.287L314.128 -201.731L318.131 -214.691L322.08 -227.141L325.98 -239.058L329.833 -250.416L333.645 -261.194L337.422 -271.37L341.169 -280.924L344.893 -289.837L348.601 -298.092L352.3 -305.672L355.997 -312.564L359.701 -318.753L363.419 -324.23L367.159 -328.982L370.931 -333.003L374.743 -336.285L378.604 -338.823L382.521 -340.614L386.505 -341.654L390.562 -341.945L394.702 -341.487L398.933 -340.283L403.263 -338.337L407.698 -335.656L412.248 -332.246L416.917 -328.118L421.713 -323.282L426.642 -317.749L431.709 -311.534L436.919 -304.652L442.276 -297.118L447.784 -288.951L453.445 -280.17L459.262 -270.794L465.236 -260.846L471.368 -250.347L477.658 -239.321L484.104 -227.793L490.706 -215.789L497.46 -203.333L504.363 -190.455L511.41 -177.181L518.597 -163.54L525.917 -149.561L533.363 -135.273L540.927 -120.707L676.042 140.026L683.493 154.461L690.774 168.626L697.864 182.498L704.745 196.056L711.395 209.278L717.795 222.144L723.925 234.637L729.764 246.738L735.294 258.432L740.494 269.703L745.346 280.537L749.831 290.923L753.93 300.848L757.627 310.302L760.903 319.278L763.741 327.767L766.127 335.764L768.045 343.263L769.481 350.261L770.42 356.756L770.851 362.747L770.762 368.233L770.142 373.217L768.982 377.701L767.273 381.689L765.008 385.185L762.181 388.196L758.786 390.729L754.82 392.79L750.281 394.391L745.168 395.54L739.48 396.248L733.219 396.528L726.388 396.39L718.991 395.849L711.034 394.918L702.524 393.611L693.469 391.944L683.878 389.931L673.763 387.589L663.137 384.933L652.011 381.98L640.403 378.747L628.328 375.251L615.803 371.508L602.847 367.536L589.481 363.352L575.725 358.973L561.601 354.415L547.133 349.696L532.345 344.831L517.262 339.838L228.225 243.483L213.147 238.423L198.379 233.437L183.952 228.526L169.895 223.692L156.236 218.935L143.002 214.255L130.221 209.651L117.918 205.122L106.119 200.664L94.8478 196.276L84.1266 191.952L73.9775 187.689L64.4211 183.481L55.4766 179.323L47.1622 175.209L39.4945 171.132L32.4889 167.086L26.1592 163.062L20.518 159.053L15.5761 155.051L11.3431 151.048L7.82685 147.036L5.03383 143.005L2.96883 138.947L1.63509 134.853L1.03432 130.714L1.16663 126.523L2.03047 122.27L3.62287 117.946L5.93913 113.545L8.97312 109.057L12.7171 104.475L17.1619 99.7926L22.2968 95.0024L28.1096 90.0983L34.5869 85.0742L41.7135 79.925L49.4732 74.646L57.8485 69.2332L66.8204 63.6831L76.3689 57.9933L86.4729 52.1615L97.11 46.1868L108.257 40.0686L119.889 33.8075L131.982 27.4046L144.509 20.8621L157.443 14.1828L170.758 7.37068L184.424 0.430364L198.413 -6.63241L212.696 -13.8114L471.369 -143.262L485.846 -150.492L500.069 -157.569L514.015 -164.473L527.66 -171.186L540.983 -177.686L553.964 -183.955L566.583 -189.972L578.822 -195.717L590.662 -201.171L602.089 -206.315L613.088 -211.128L623.644 -215.593L633.745 -219.689L643.38 -223.4L652.54 -226.707L661.215 -229.594L669.398 -232.043L677.084 -234.04L684.268 -235.568L690.945 -236.614L697.114 -237.164L702.774 -237.205L707.926 -236.727L712.569 -235.718L716.708 -234.169L720.346 -232.072L723.488 -229.419L726.14 -226.204L728.308 -222.422L730.002 -218.071L731.229 -213.146L732.001 -207.649L732.328 -201.578L732.221 -194.935L731.692 -187.723L730.756 -179.947L729.426 -171.613L727.716 -162.727L725.641 -153.299L723.217 -143.337L720.46 -132.854L717.386 -121.861L714.011 -110.374L710.353 -98.4061L706.428 -85.9752L702.255 -73.0989L697.849 -59.7961L693.229 -46.0873L688.411 -31.9938L683.413 -17.5383L678.253 -2.74441L672.945 12.3633L667.508 27.7592L569.068 305.263L563.564 320.729L558.139 335.899L552.798 350.742L547.543 365.226L542.377 379.323L537.301 393.004L532.314 406.241L527.417 419.007L522.609 431.274L517.887 443.019L513.25 454.216L508.695 464.843L504.216 474.876L499.811 484.297L495.473 493.084L491.199 501.221L486.98 508.689L482.812 515.475L478.687 521.562L474.598 526.94L470.537 531.597L466.497 535.524L462.469 538.713L458.446 541.157L454.418 542.853L450.379 543.796L446.318 543.986L442.228 543.423L438.1 542.108L433.926 540.046L429.698 537.24L425.409 533.698L421.05 529.428L416.615 524.44L412.096 518.745L407.487 512.356L402.783 505.287L397.978 497.553L393.066 489.173L388.045 480.163L382.909 470.545L377.655 460.338L372.283 449.565L366.789 438.25L361.172 426.416L355.434 414.088L349.574 401.294L343.594 388.06L337.495 374.413L331.282 360.383L324.957 345.999L318.527 331.291L311.996 316.288L194.924 46.5015L188.437 31.5012L182.097 16.776L175.922 2.3505L169.931 -11.7518L164.142 -25.5083L158.573 -38.8977L153.244 -51.8997L148.174 -64.4951L143.38 -76.666L138.881 -88.3957L134.695 -99.6686L130.841 -110.471L127.335 -120.789L124.196 -130.612L121.439 -139.93L119.081 -148.732L117.137 -157.013L115.623 -164.766L114.553 -171.985L113.939 -178.667L113.796 -184.811L114.135 -190.414L114.966 -195.478L116.299 -200.003L118.145 -203.994L120.51 -207.453L123.401 -210.386L126.824 -212.799L130.784 -214.7L135.284 -216.098L140.326 -217.002L145.911 -217.421L152.039 -217.369L158.708 -216.857L165.914 -215.899L173.655 -214.507L181.923 -212.698L190.712 -210.486L200.015 -207.887L209.82 -204.917L220.118 -201.594L230.896 -197.935L242.141 -193.956L253.837 -189.678L265.97 -185.116L278.521 -180.291L291.472 -175.219L304.804 -169.92L318.496 -164.413L332.526 -158.715L346.871 -152.844L361.508 -146.82L376.411 -140.658L643.273 -30.0313L658.043 -23.8813L672.515 -17.8255L686.661 -11.8683L700.45 -6.01345L713.854 -0.263648L726.846 5.37915L739.398 10.9137L751.484 16.3399L763.079 21.658L774.159 26.8694L784.7 31.976L794.68 36.9804L804.077 41.8862L812.872 46.6973L821.046 51.4184L828.582 56.0546L835.463 60.6117L841.675 65.0962L847.205 69.5146L852.04 73.8739L856.17 78.1819L859.586 82.4463L862.282 86.6751L864.25 90.8766L865.487 95.0594L865.991 99.2319" stroke="white" stroke-width="2"/>
</svg>
