<svg width="50" height="20" viewBox="0 0 50 20" fill="none" xmlns="http://www.w3.org/2000/svg">
<path d="M23.2956 9.68775V15.4984H21.448V1.12793H26.2519C27.422 1.12793 28.5306 1.56529 29.3928 2.37754C30.2551 3.1273 30.6862 4.25195 30.6862 5.43908C30.6862 6.62621 30.2551 7.68838 29.3928 8.50062C28.5306 9.31287 27.4836 9.75023 26.2519 9.75023L23.2956 9.68775ZM23.2956 2.87738V7.87582H26.375C27.0525 7.87582 27.73 7.6259 28.1611 7.12605C29.1465 6.18885 29.1465 4.62684 28.2227 3.68963L28.1611 3.62715C27.6684 3.1273 27.0525 2.8149 26.375 2.87738H23.2956Z" fill="#5F6368"/>
<path d="M34.9357 5.37646C36.2907 5.37646 37.3377 5.75135 38.1383 6.50111C38.9389 7.25088 39.3085 8.25057 39.3085 9.50018V15.4983H37.584V14.1237H37.5224C36.7834 15.2484 35.7364 15.8107 34.5046 15.8107C33.4576 15.8107 32.5338 15.4983 31.7947 14.8735C31.1173 14.2487 30.6862 13.374 30.6862 12.4368C30.6862 11.4371 31.0557 10.6248 31.7947 10C32.5338 9.37522 33.5808 9.12529 34.8125 9.12529C35.9211 9.12529 36.7834 9.31273 37.4608 9.7501V9.31273C37.4608 8.68793 37.2145 8.06313 36.7218 7.68824C36.2291 7.25088 35.6132 7.00096 34.9357 7.00096C33.8887 7.00096 33.0881 7.43832 32.5338 8.31305L30.9325 7.31336C31.9179 6.00127 33.2113 5.37646 34.9357 5.37646ZM32.5954 12.4992C32.5954 12.9991 32.8417 13.4364 33.2113 13.6864C33.6424 13.9988 34.1351 14.1862 34.6278 14.1862C35.3668 14.1862 36.1059 13.8738 36.6602 13.3115C37.2761 12.7492 37.584 12.0619 37.584 11.3121C37.0297 10.8747 36.2291 10.6248 35.1821 10.6248C34.443 10.6248 33.8271 10.8123 33.3344 11.1871C32.8417 11.4996 32.5954 11.9369 32.5954 12.4992Z" fill="#5F6368"/>
<path d="M49.2856 5.68896L43.1884 19.872H41.3408L43.6195 14.9361L39.6163 5.75144H41.5871L44.4818 12.8117H44.5434L47.3764 5.75144H49.2856V5.68896Z" fill="#5F6368"/>
<path d="M15.9667 8.43795C15.9667 7.87563 15.9051 7.3133 15.8435 6.75098H8.14502V9.93748H12.5178C12.333 10.9372 11.7787 11.8744 10.9165 12.4367V14.4986H13.5648C15.1045 13.0615 15.9667 10.9372 15.9667 8.43795Z" fill="#4285F4"/>
<path d="M8.14494 16.4979C10.3621 16.4979 12.2097 15.7481 13.5647 14.4985L10.9164 12.4367C10.1773 12.9365 9.25352 13.2489 8.14494 13.2489C6.05095 13.2489 4.20331 11.8119 3.58743 9.8125H0.877563V11.9368C2.29409 14.7485 5.06554 16.4979 8.14494 16.4979Z" fill="#34A853"/>
<path d="M3.5875 9.81279C3.21797 8.81311 3.21797 7.68846 3.5875 6.62629V4.50195H0.877628C-0.292543 6.81373 -0.292543 9.56287 0.877628 11.9371L3.5875 9.81279Z" fill="#FBBC04"/>
<path d="M8.14499 3.25235C9.31516 3.25235 10.4237 3.68971 11.286 4.50196L13.6263 2.1277C12.1482 0.753127 10.1774 -0.0591189 8.20658 0.00336154C5.12719 0.00336154 2.29414 1.75281 0.939209 4.56444L3.64908 6.68877C4.20337 4.6894 6.051 3.25235 8.14499 3.25235Z" fill="#EA4335"/>
</svg>
