<svg width="31" height="35" viewBox="0 0 31 35" fill="none" xmlns="http://www.w3.org/2000/svg">
<path d="M15.1988 8.14387C15.0026 8.09149 14.7943 8.11077 14.6111 8.19824C14.4279 8.28572 14.2819 8.43564 14.1994 8.62109L10.5522 16.8282C10.7224 16.4449 11.1463 16.2423 11.5516 16.3509L15.5107 17.4118C19.4952 18.4794 23.6552 16.4787 25.3284 12.7051C25.4532 12.4234 25.5588 12.1335 25.6445 11.8375C24.7741 11.0352 23.6661 10.4127 22.3627 10.0634L15.1988 8.14387Z" fill="#001C64"/>
<path d="M25.6443 11.8378C25.5587 12.1338 25.4531 12.4237 25.3283 12.7055C23.655 16.479 19.4948 18.4797 15.5105 17.4121L11.5514 16.3513C11.1464 16.2428 10.7224 16.4449 10.552 16.8285L7.19983 24.37L5.09805 29.1014C5.05729 29.1927 5.03683 29.2918 5.0381 29.3919C5.03937 29.4919 5.06234 29.5905 5.1054 29.6808C5.14846 29.7711 5.21061 29.851 5.28754 29.915C5.36448 29.9789 5.45438 30.0254 5.55103 30.0513L9.84831 31.2027C10.0444 31.2551 10.2528 31.2358 10.436 31.1484C10.6192 31.0609 10.7651 30.911 10.8477 30.7255L13.9032 23.8496C13.9858 23.664 14.132 23.514 14.3153 23.4266C14.4986 23.3391 14.7071 23.32 14.9033 23.3725L17.4334 24.0505C21.4179 25.1181 25.5778 23.1173 27.2511 19.3438C28.4389 16.6656 27.7126 13.7443 25.6443 11.8378Z" fill="#0070E0"/>
<path d="M11.8473 1.12367C11.4423 1.01516 11.0182 1.21726 10.8481 1.60027L1.74624 22.08C1.57353 22.4688 1.78884 22.92 2.19987 23.0301L7.20052 24.37L10.5521 16.8284L14.1993 8.62134C14.2818 8.43589 14.4278 8.28597 14.611 8.19849C14.7942 8.11102 15.0025 8.09174 15.1987 8.14411L22.3626 10.0637C23.6663 10.413 24.774 11.0358 25.6444 11.8377C26.6747 8.27006 24.5088 4.51631 20.4402 3.42615L11.8473 1.12367Z" fill="#003087"/>
</svg>
