<svg width="34" height="24" viewBox="0 0 34 24" fill="none" xmlns="http://www.w3.org/2000/svg">
<path fill-rule="evenodd" clip-rule="evenodd" d="M32.1904 2.61838C30.9206 0.418949 28.8532 -0.701459 26.817 0.474136C24.7722 1.65469 24.5371 4.10446 25.797 6.28671C27.29 8.87276 29.5046 9.33542 31.6009 8.1251C32.6233 7.53482 33.2626 6.85642 33.6583 6.19264L32.6663 4.47434C32.2507 5.10375 31.6847 5.67108 30.8341 6.16215C30.0008 6.6433 29.0933 6.77778 28.4134 5.81854L32.6147 3.39295C32.5502 3.28126 32.3094 2.82458 32.1904 2.61838ZM27.475 4.25258C26.9144 3.28174 27.2741 2.53568 27.8154 2.22318C28.3395 1.9206 29.131 2.00198 29.6916 2.97282L27.475 4.25258ZM20.2187 4.28366C19.3768 4.76977 19.0637 5.47748 18.9217 5.92602L18.5025 5.45783L16.6123 6.5491L22.3961 16.5668L24.2811 14.8714L22.8859 12.435C23.3241 12.4798 23.963 12.5348 24.7191 12.0983C26.257 11.2104 26.9431 9.16471 25.3707 6.44119C23.9236 3.95461 21.7223 3.4156 20.2187 4.28366ZM23.1209 10.5008C22.614 10.7935 22.2091 10.7867 21.874 10.6824L20.0251 7.49986C20.1046 7.12174 20.3147 6.77133 20.8044 6.4886C21.5863 6.03721 22.6335 6.60104 23.2833 7.72653C23.948 8.8778 23.9113 10.0445 23.1209 10.5008ZM13.2848 7.61109L15.1735 5.9021L14.1665 4.15803L12.2729 5.85841L13.2848 7.61109ZM13.6618 8.26404L15.8183 7.019L20.1586 14.5366L18.0021 15.7816L13.6618 8.26404ZM11.7178 10.2341L11.2132 9.67773L9.35747 10.7492L13.6977 18.2667L15.8456 17.0267L12.9042 11.9319C13.0291 10.9777 13.9577 10.6019 14.2786 10.5427L13.1377 8.56662C12.8033 8.62225 11.6889 9.0136 11.7178 10.2341ZM5.97855 10.2142L4.14016 11.8712L8.10478 18.758C8.83891 20.0296 10.3332 20.4154 11.6048 19.6813C12.3093 19.2746 12.7504 18.8481 12.9446 18.5297L11.9377 16.7857C11.7272 17.0561 10.5979 18.235 9.86381 16.9635L8.1029 13.9135L9.73529 12.971L8.67874 11.141L7.04635 12.0835L5.97855 10.2142ZM2.50699 17.6139C2.31354 17.2789 2.51406 16.9913 2.96941 16.7284C3.62237 16.3514 4.56124 16.0728 5.41757 16.0481L4.2519 14.0291C3.37511 14.1573 2.60612 14.4523 1.89303 14.864C0.148947 15.871 -0.485115 17.4513 0.392861 18.972C1.76191 21.3433 4.80843 19.0803 5.39871 20.1027C5.62689 20.4979 5.35763 20.8252 4.8765 21.103C4.16341 21.5147 3.08406 21.7484 2.13419 21.7698L3.31475 23.8146C4.31217 23.697 5.2041 23.3767 5.94297 22.9502C7.73001 21.9184 8.44768 20.3242 7.55979 18.7863C6.07302 16.231 3.06255 18.5762 2.50699 17.6139Z" fill="#635BFF"/>
</svg>
