<svg width="18" height="19" viewBox="0 0 18 19" fill="none" xmlns="http://www.w3.org/2000/svg">
<path d="M7.34118 7C6.53284 6.46254 6.00008 5.54349 6.00008 4.5C6.00008 2.84315 7.34323 1.5 9.00008 1.5C10.5954 1.5 11.8999 2.74523 11.9946 4.31674M6.00558 9.68672C5.13595 10.118 4.07365 10.1199 3.16996 9.59814C1.73509 8.76972 1.24346 6.93495 2.07189 5.50007C2.86955 4.11848 4.60018 3.61139 6.0085 4.31513M7.66445 12.1867C7.60317 13.1555 7.07362 14.0764 6.16993 14.5981C4.73506 15.4266 2.90029 14.9349 2.07186 13.5001C1.2742 12.1185 1.70036 10.3662 3.01398 9.49839M10.3357 6.81328C10.397 5.8445 10.9265 4.9236 11.8302 4.40186C13.2651 3.57343 15.0998 4.06505 15.9283 5.49993C16.7259 6.88152 16.2998 8.63384 14.9862 9.50161M11.9946 9.31328C12.8642 8.88197 13.9265 8.88011 14.8302 9.40186C16.2651 10.2303 16.7567 12.0651 15.9283 13.4999C15.1306 14.8815 13.4 15.3886 11.9917 14.6849M10.659 12C11.4674 12.5375 12.0001 13.4565 12.0001 14.5C12.0001 16.1569 10.657 17.5 9.00011 17.5C7.4048 17.5 6.10032 16.2548 6.00562 14.6833M12.0001 9.5C12.0001 11.1569 10.6569 12.5 9.00008 12.5C7.34323 12.5 6.00008 11.1569 6.00008 9.5C6.00008 7.84315 7.34323 6.5 9.00008 6.5C10.6569 6.5 12.0001 7.84315 12.0001 9.5Z" stroke="black" strokeWidth="2" strokeLinecap="round" strokeLinejoin="round"/>
</svg>
